<?xml version="1.0" standalone="no"?>
<!DOCTYPE svg PUBLIC "-//W3C//DTD SVG 1.1//EN" "http://www.w3.org/Graphics/SVG/1.1/DTD/svg11.dtd" >
<svg>
<metadata>
Created by FontForge 20090622 at Tue Jan 30 20:05:43 2018
 By deploy user
Copyright (c) 2008 BNP Paribas
</metadata>
<defs>
<font id="BNPPSans-ExtraBold" horiz-adv-x="1085" >
  <font-face 
    font-family="BNPPSans-ExtraBold"
    font-weight="800"
    font-stretch="normal"
    units-per-em="2048"
    panose-1="2 0 5 3 2 0 0 2 0 4"
    ascent="1546"
    descent="-502"
    x-height="1102"
    cap-height="1434"
    bbox="-143 -530.037 2431 2111"
    underline-thickness="102"
    underline-position="-102"
    unicode-range="U+0020-U+FB04"
  />
<missing-glyph horiz-adv-x="1024" 
d="M389 242h244v880h-244v-880zM874 1362v-1362h-727v1362h727z" />
    <glyph glyph-name="f_i" unicode="fi" horiz-adv-x="1259" 
d="M58 -104q85 0 85 94v819h-127v293h127v61q0 220 125.5 326t341.5 106h22q23 0 103 -8l-24 -327q-24 4 -49 4q-136 0 -136 -105v-57h625v-1102h-383v809h-242v-903q0 -176 -98.5 -258t-238.5 -82t-267 53l31 299q69 -22 105 -22zM1151 1536v-311h-383v311h383z" />
    <glyph glyph-name="f_l" unicode="fl" horiz-adv-x="1286" 
d="M1231 301q43 0 84 18v-294q-112 -49 -156.5 -52.5t-79.5 -3.5q-160 0 -235.5 82t-75.5 268v1176l383 41v-1153q0 -82 80 -82zM58 -104q85 0 85 94v819h-127v293h127v61q0 220 125.5 326t341.5 106q47 0 125 -8l-24 -327q-24 4 -49 4q-136 0 -136 -105v-57h185l-21 -293
h-164v-903q0 -176 -98.5 -258t-238.5 -82t-267 53l31 299q69 -22 105 -22z" />
    <glyph glyph-name=".notdef" horiz-adv-x="1024" 
d="M389 242h244v880h-244v-880zM874 1362v-1362h-727v1362h727z" />
    <glyph glyph-name=".null" horiz-adv-x="0" 
 />
    <glyph glyph-name="nonmarkingreturn" horiz-adv-x="552" 
 />
    <glyph glyph-name="space" unicode=" " horiz-adv-x="512" 
 />
    <glyph glyph-name="space" unicode="&#xa0;" horiz-adv-x="512" 
 />
    <glyph glyph-name="exclam" unicode="!" horiz-adv-x="655" 
d="M518 373v-373h-383v373h383zM537 1434l-33 -940h-352l-33 940h418z" />
    <glyph glyph-name="quotedbl" unicode="&#x22;" horiz-adv-x="970" 
d="M412 1434v-486h-326v486h326zM885 1434v-486h-326v486h326z" />
    <glyph glyph-name="numbersign" unicode="#" horiz-adv-x="1298" 
d="M532 616h197l35 197h-197zM135 1102h174l58 332h309l-58 -332h197l57 332h310l-58 -332h174l-51 -289h-174l-35 -197h174l-51 -286h-174l-57 -330h-309l57 330h-197l-57 -330h-309l57 330h-172l49 286h174l35 197h-174z" />
    <glyph glyph-name="dollar" unicode="$" 
d="M672 874q-8 150 -102 150q-105 0 -105 -78q0 -37 42 -62.5t105.5 -51l242.5 -97.5t179 -292q0 -162 -91 -262.5t-255 -133.5v-227h-278v219q-217 35 -404 207l187 280q170 -170 319 -170q84 0 84 60q0 29 -40 49t-98.5 43.5l-128 53.5t-168 111t-98.5 251t90.5 275.5
t256.5 133.5v203h278v-209q174 -28 251.5 -142.5t92.5 -269.5z" />
    <glyph glyph-name="percent" unicode="%" horiz-adv-x="1703" 
d="M989 354q0 192 90 288.5t254 96.5t254 -96t90 -288t-90 -289t-254 -97t-254 96.5t-90 288.5zM1409 354.5q0 151.5 -76 151.5t-76 -151.5t76 -151.5t76 151.5zM27 1082q0 192 90 288t254 96t254 -96t90 -288t-90 -289t-254 -97t-254 97t-90 289zM446 1081.5
q0 151.5 -75.5 151.5t-75.5 -151.5t75.5 -151.5t75.5 151.5zM1450 1434l-913 -1434h-283l911 1434h285z" />
    <glyph glyph-name="ampersand" unicode="&#x26;" horiz-adv-x="1200" 
d="M633 1080q0 89 -86 89q-29 0 -57.5 -19.5t-28.5 -70.5t19 -85.5t42 -63.5q111 61 111 150zM373 420q0 -70 44 -102.5t108 -32.5t110 39l-199 221q-63 -55 -63 -125zM864 702h305q0 -168 -32.5 -254t-51.5 -112l345 -336h-457l-94 88q-143 -119 -392 -119t-376 120.5
t-127 316.5q0 119 57 217t174 155q-117 139 -117 303.5t119 273.5t336 109t328.5 -106.5t111.5 -265.5q0 -243 -250 -383l105 -115q16 40 16 108z" />
    <glyph glyph-name="quotesingle" unicode="'" horiz-adv-x="499" 
d="M412 1434v-486h-326v486h326z" />
    <glyph glyph-name="parenleft" unicode="(" horiz-adv-x="704" 
d="M18 521q0 318 100.5 582.5t243.5 432.5h373q-162 -166 -271.5 -444t-109.5 -569.5t110 -570.5t271 -444h-373q-231 271 -287.5 556.5t-56.5 456.5z" />
    <glyph glyph-name="parenright" unicode=")" horiz-adv-x="704" 
d="M686 521q0 -313 -100 -578t-244 -435h-373q163 167 273 446t109 570q-1 290 -110 569t-272 443h373q63 -74 125 -177q219 -370 219 -838z" />
    <glyph glyph-name="asterisk" unicode="*" horiz-adv-x="876" 
d="M856 950l-115 -198l-196 131l6 -203h-225l6 203l-197 -129l-115 194l195 107l-195 108l115 193l197 -123l-6 201h225l-4 -201l194 121l113 -191l-195 -110z" />
    <glyph glyph-name="plus" unicode="+" 
d="M700 1133v-293h291v-318h-291v-291h-317v291h-289v318h289v293h317z" />
    <glyph glyph-name="comma" unicode="," horiz-adv-x="499" 
d="M500 373l-228 -643h-313l135 643h406z" />
    <glyph glyph-name="hyphen" unicode="-" horiz-adv-x="817" 
d="M715 522h-613v318h613v-318z" />
    <glyph glyph-name="period" unicode="." horiz-adv-x="499" 
d="M440 373v-373h-383v373h383z" />
    <glyph glyph-name="slash" unicode="/" horiz-adv-x="843" 
d="M844 1434l-522 -1434h-322l520 1434h324z" />
    <glyph glyph-name="zero" unicode="0" 
d="M543 317q127 -1 127 399t-127 400t-127 -400t127 -399zM535 -31q-521 0 -521 746q0 380 141.5 564.5t394.5 184.5t386 -178t133 -567q0 -750 -534 -750z" />
    <glyph glyph-name="one" unicode="1" 
d="M109 356h299v641l-299 -149v381l409 205h266v-1078h285v-356h-960v356z" />
    <glyph glyph-name="two" unicode="2" 
d="M600 1010q0 104 -75.5 104t-106.5 -36t-31 -134l-379 72q20 311 195.5 379.5t302.5 68.5q233 0 364 -113.5t131 -336.5q0 -129 -64.5 -237.5t-170.5 -219.5l-186 -192h448v-365h-973v322l475 530q70 80 70 158z" />
    <glyph glyph-name="three" unicode="3" 
d="M489 543h-184v329h174q55 0 88 35t33 90q0 119 -106 119q-110 0 -121 -143l-373 94q33 190 164 293.5t351 103.5t352 -109.5t132 -305.5q0 -84 -37.5 -161t-142.5 -132q207 -61 207 -332q0 -229 -136 -342t-376 -113q-295 0 -508 193l156 303q72 -72 159 -110t157 -38
q151 0 151 113t-140 113z" />
    <glyph glyph-name="four" unicode="4" 
d="M573 588v461l-225 -461h225zM942 1434v-846h137v-326h-137v-262h-369v262h-555v318l439 854h485z" />
    <glyph glyph-name="five" unicode="5" 
d="M455 578q-66 0 -162 -31l-187 127v760h857v-365h-494v-180h37q406 0 457 -169t51 -267q0 -229 -133 -356.5t-369 -127.5q-283 0 -496 193l156 303q68 -68 133.5 -108t157.5 -40q151 1 151 131t-159 130z" />
    <glyph glyph-name="six" unicode="6" 
d="M577 317q47 0 74 39.5t27 103.5t-28 94t-72 30q-95 0 -138 -29q0 -112 19.5 -156.5t45 -63t72.5 -18.5zM619 897q198 0 325 -97t127 -330t-140 -367t-364 -134q-379 0 -453.5 271.5t-74.5 471.5q0 378 143.5 565t397.5 187q409 0 475 -387l-367 -76q-12 61 -39.5 88
t-77.5 27q-74 0 -100.5 -69.5t-26.5 -184.5q77 35 175 35z" />
    <glyph glyph-name="seven" unicode="7" 
d="M1032 1434v-295l-516 -1139h-446l520 1073h-537v361h979z" />
    <glyph glyph-name="eight" unicode="8" 
d="M542.5 1128q-116.5 0 -116.5 -129q0 -57 30.5 -96t86 -39t86 39t30.5 96q0 129 -116.5 129zM1075 420q0 -204 -149 -327.5t-384.5 -123.5t-383.5 123t-148 328q0 238 185 330q-148 96 -148 298q0 201 133 308.5t362.5 107.5t362.5 -107.5t133 -309.5t-147 -297
q184 -90 184 -330zM686 442q0 148 -143.5 148t-143.5 -148q0 -66 38 -104.5t106 -38.5t105.5 39t37.5 104z" />
    <glyph glyph-name="nine" unicode="9" 
d="M478 317q158 0 157 224q-89 -19 -174 -19q-191 0 -313.5 112.5t-122.5 337.5t133.5 358.5t369.5 133.5q273 0 399 -174t126 -558t-153.5 -573.5t-397.5 -189.5q-278 0 -486 193l156 303q148 -148 306 -148zM539 844q52 0 106 20q-2 139 -29.5 195.5t-85.5 56.5t-84 -40
t-26 -100t33.5 -96t85.5 -36z" />
    <glyph glyph-name="colon" unicode=":" horiz-adv-x="499" 
d="M440 1102v-373h-383v373h383zM440 373v-373h-383v373h383z" />
    <glyph glyph-name="semicolon" unicode=";" horiz-adv-x="499" 
d="M487 373l-227 -643h-313l135 643h405zM440 1102v-373h-383v373h383z" />
    <glyph glyph-name="less" unicode="&#x3c;" 
d="M991 254l-897 223v406l897 223v-318l-598 -108l598 -109v-317z" />
    <glyph glyph-name="equal" unicode="=" 
d="M991 293h-897v317h897v-317zM991 729h-897v318h897v-318z" />
    <glyph glyph-name="greater" unicode="&#x3e;" 
d="M94 254v317l598 109l-598 108v318l897 -223v-406z" />
    <glyph glyph-name="question" unicode="?" horiz-adv-x="942" 
d="M641 373v-373h-383v373h383zM551 1034q0 80 -67.5 80t-94.5 -28.5t-29 -81.5l-360 69q8 178 128 284.5t343 106.5t346 -105.5t123 -289.5q0 -113 -51 -191t-105 -132l-80 -78.5t-49.5 -58t-23.5 -115.5h-363q4 159 33 218.5t69 102.5t88 87t70.5 69.5t22.5 62.5z" />
    <glyph glyph-name="at" unicode="@" horiz-adv-x="1568" 
d="M906 -201q-196 0 -347 46t-266 141.5t-183.5 240t-68.5 324.5t54.5 315t153.5 230.5t236.5 147.5t387 52t457.5 -184t208 -489q0 -236 -98.5 -369t-275.5 -133t-224 115q-92 -97 -265 -97t-229.5 151.5t-56.5 279.5q0 228 117 321.5t290 93.5t345 -113v-409q0 -82 71 -82
q99 0 99 234t-146.5 360.5t-376.5 126.5t-383 -142.5t-153 -404.5t178.5 -408.5t450.5 -146.5q186 0 376 72l62 -191q-217 -82 -413 -82zM682 563q0 -172 94 -172q41 0 78 51v275q-28 16 -59 16q-55 0 -84 -37t-29 -133z" />
    <glyph glyph-name="A" unicode="A" horiz-adv-x="1193" 
d="M440 537h258l-131 510zM778 223h-418l-55 -223h-336l404 1434h452l400 -1434h-389z" />
    <glyph glyph-name="B" unicode="B" horiz-adv-x="1218" 
d="M608 1434q249 0 384.5 -76.5t135.5 -288.5q0 -121 -59 -213t-160 -127q119 -18 190.5 -96t71.5 -215q0 -225 -144 -321.5t-413 -96.5h-491v1434h485zM612 860q125 0 125 126q0 98 -34.5 122.5t-100.5 24.5h-102v-273h112zM614 301q144 0 144 145q0 72 -33 106t-111 34
h-114v-285h114z" />
    <glyph glyph-name="C" unicode="C" horiz-adv-x="1169" 
d="M639 1116q-113 0 -162 -89t-49 -257t23.5 -249t79.5 -142.5t210 -61.5t344 103l31 -326q-215 -125 -448 -125q-456 0 -541.5 279.5t-85.5 482.5q0 383 155.5 558t444.5 175q361 0 432.5 -187t71.5 -325l-365 -26q0 190 -141 190z" />
    <glyph glyph-name="D" unicode="D" horiz-adv-x="1325" 
d="M500 338h172q55 0 97 12t85 75.5t43 297.5t-52.5 303.5t-172.5 69.5h-172v-758zM690 1434q291 0 442.5 -168t151.5 -527q0 -568 -229.5 -653.5t-372.5 -85.5h-559v1434h567z" />
    <glyph glyph-name="E" unicode="E" horiz-adv-x="1073" 
d="M973 1434v-338h-473v-232h448v-307h-448v-219h501v-338h-878v1434h850z" />
    <glyph glyph-name="F" unicode="F" horiz-adv-x="1056" 
d="M1006 1434v-338h-506v-283h420v-328h-420v-485h-377v1434h883z" />
    <glyph glyph-name="G" unicode="G" horiz-adv-x="1323" 
d="M862 504h-190v305h569v-809h-340v84q-105 -115 -297 -115q-379 0 -471 265.5t-92 478.5t49 355t136 230t207 127t329 39t335 -130t126 -382l-363 -26q-4 190 -176 190q-235 0 -235 -385q0 -246 55 -330t163 -84t195 66v121z" />
    <glyph glyph-name="H" unicode="H" horiz-adv-x="1388" 
d="M500 1434v-547h389v547h377v-1434h-377v526h-389v-526h-377v1434h377z" />
    <glyph glyph-name="I" unicode="I" horiz-adv-x="622" 
d="M500 1434v-1434h-377v1434h377z" />
    <glyph glyph-name="J" unicode="J" horiz-adv-x="659" 
d="M100 317q37 0 58.5 16.5t21.5 69.5v1031h377v-1076q0 -186 -98.5 -287.5t-243.5 -101.5t-246 49l43 318q51 -19 88 -19z" />
    <glyph glyph-name="K" unicode="K" horiz-adv-x="1253" 
d="M500 1434v-568l387 568h399l-403 -551l422 -883h-439l-235 535l-131 -183v-352h-377v1434h377z" />
    <glyph glyph-name="L" unicode="L" horiz-adv-x="954" 
d="M500 1434v-1117h434v-317h-811v1434h377z" />
    <glyph glyph-name="M" unicode="M" horiz-adv-x="1734" 
d="M623 1434l245 -807l244 807h432l129 -1434h-381l-55 770l-197 -655h-348l-194 655l-56 -770h-381l129 1434h433z" />
    <glyph glyph-name="N" unicode="N" horiz-adv-x="1425" 
d="M932 1434h371v-1434h-390l-421 762v-762h-369v1434h391l418 -791v791z" />
    <glyph glyph-name="O" unicode="O" horiz-adv-x="1275" 
d="M637 1116q-45 0 -85 -16.5t-69.5 -60.5t-47 -121.5t-17.5 -200.5t17.5 -200t47 -122t69.5 -61.5t85 -16.5t82 16.5t62.5 61.5t40 122t14.5 200t-14.5 200.5t-40 121.5t-62.5 60.5t-82 16.5zM638 1464q124 0 232.5 -39t189.5 -128t128 -232t47 -441.5t-164 -476.5
t-434 -178q-418 0 -507 269.5t-89 476.5t47 350t128 232t189.5 128t232.5 39z" />
    <glyph glyph-name="P" unicode="P" horiz-adv-x="1165" 
d="M567 1434q297 0 417 -101.5t120 -373.5q0 -273 -122 -400t-382 -127q-68 0 -100 8v-440h-377v1434h444zM560 750q90 0 131.5 36t41.5 147q0 110 -36.5 146.5t-129.5 36.5h-67v-362q20 -4 60 -4z" />
    <glyph glyph-name="Q" unicode="Q" horiz-adv-x="1275" 
d="M637 1116q-45 0 -85 -16.5t-69.5 -60.5t-47 -121.5t-17.5 -200.5t17.5 -200t47 -122t69.5 -61.5t85 -16.5t82 16.5t62.5 61.5t40 122t14.5 200t-14.5 200.5t-40 121.5t-62.5 60.5t-82 16.5zM638 1464q270 0 433.5 -179.5t163.5 -581.5t-130 -526t-204 -157l215 -368h-422
l-155 323q-353 47 -425.5 300t-72.5 450t47 340t163.5 271t386.5 128z" />
    <glyph glyph-name="R" unicode="R" horiz-adv-x="1208" 
d="M584 811q84 0 128 41t44 119t-39 111.5t-127 33.5h-90v-297q50 -8 84 -8zM500 0h-377v1434h467q262 0 410.5 -98t148.5 -347q0 -327 -201 -438l275 -551h-416l-229 479q-42 0 -78 6v-485z" />
    <glyph glyph-name="S" unicode="S" horiz-adv-x="1116" 
d="M555 1133q-117 0 -117 -101q0 -51 45 -87t113 -69.5t258 -119.5t190 -336q0 -206 -128.5 -328.5t-372.5 -122.5t-355.5 81t-154.5 120l155 303q160 -156 353 -156q63 0 89.5 16.5t26.5 55.5t-45 69.5t-111.5 61.5l-145.5 67t-190.5 128t-111.5 298q0 205 138 328t431 123
t364 -167t75 -298l-365 -28q-8 162 -141 162z" />
    <glyph glyph-name="T" unicode="T" horiz-adv-x="1118" 
d="M1092 1434v-355h-344v-1079h-377v1079h-344v355h1065z" />
    <glyph glyph-name="U" unicode="U" horiz-adv-x="1345" 
d="M489 522q0 -205 136.5 -205t183.5 47.5t47 157.5v912h377v-922q0 -388 -206 -465.5t-421 -77.5t-354 146t-139 397v922h376v-912z" />
    <glyph glyph-name="V" unicode="V" horiz-adv-x="1245" 
d="M416 1434l237 -973l234 973h358l-383 -1434h-444l-418 1434h416z" />
    <glyph glyph-name="W" unicode="W" horiz-adv-x="1884" 
d="M0 1434h401l134 -891l217 891h381l217 -891l133 891h401l-270 -1434h-461l-211 852l-211 -852h-461z" />
    <glyph glyph-name="X" unicode="X" horiz-adv-x="1202" 
d="M-27 1434h435l208 -402l199 402h399l-395 -703l414 -731h-438l-211 397l-211 -397h-404l396 705z" />
    <glyph glyph-name="Y" unicode="Y" horiz-adv-x="1150" 
d="M764 0h-377v473l-428 961h418l201 -545l206 545h408l-428 -961v-473z" />
    <glyph glyph-name="Z" unicode="Z" horiz-adv-x="1155" 
d="M1094 1434v-254l-545 -846h555v-334h-1059v252l545 848h-527v334h1031z" />
    <glyph glyph-name="bracketleft" unicode="[" horiz-adv-x="661" 
d="M637 1536v-281h-182v-1443h182v-281h-514v2005h514z" />
    <glyph glyph-name="backslash" unicode="\" horiz-adv-x="843" 
d="M0 1434h324l520 -1434h-322z" />
    <glyph glyph-name="bracketright" unicode="]" horiz-adv-x="661" 
d="M25 1536h514v-2005h-514v281h182v1443h-182v281z" />
    <glyph glyph-name="asciicircum" unicode="^" horiz-adv-x="1091" 
d="M727 719l-180 319l-182 -319h-345l386 715h280l385 -715h-344z" />
    <glyph glyph-name="underscore" unicode="_" horiz-adv-x="1120" 
d="M1130 -348h-1140v317h1140v-317z" />
    <glyph glyph-name="grave" unicode="`" horiz-adv-x="1024" 
d="M537 1536l176 -324h-299l-244 324h367z" />
    <glyph glyph-name="a" unicode="a" horiz-adv-x="1062" 
d="M1012 283q48 0 116 41l17 -258q-47 -45 -119 -71t-127 -26q-99 0 -169 40t-81 114q-53 -74 -134 -114t-155 -40q-146 0 -234.5 82t-88.5 249t155.5 265t382.5 107v78q0 53 -17 75.5t-66 22.5t-64.5 -35t-15.5 -88l-336 29q12 182 131 280.5t327 98.5t316 -98t108 -263
v-428q0 -61 54 -61zM481 276q40 0 94 27v164q-122 -7 -150 -44.5t-28 -66.5q0 -80 84 -80z" />
    <glyph glyph-name="b" unicode="b" horiz-adv-x="1157" 
d="M1110 573q0 -598 -539 -598q-129 0 -252.5 45.5t-209.5 122.5v1352l383 41v-479q136 69 266 69q169 0 260.5 -119.5t91.5 -433.5zM594 829q-27 0 -102 -16v-502q47 -33 90 -33t65.5 10.5t46 60t23.5 177.5q0 129 -8.5 180.5t-23.5 78t-39.5 35.5t-51.5 9z" />
    <glyph glyph-name="c" unicode="c" horiz-adv-x="995" 
d="M961 84q-216 -115 -440 -115t-349 140.5t-125 451.5t119.5 441.5t382.5 130.5q327 0 371.5 -169t44.5 -272l-336 -28q0 80 -14.5 122.5t-71.5 42.5q-56 0 -78.5 -55.5t-22.5 -178.5q0 -124 12.5 -176t44.5 -94t117 -42q184 0 320 79z" />
    <glyph glyph-name="d" unicode="d" horiz-adv-x="1189" 
d="M737 131q-148 -162 -310 -162t-271 150t-109 432q0 281 105.5 431.5t300.5 150.5q112 0 211 -46v408l380 41v-1192q0 -61 54 -61q48 0 116 41l17 -258q-47 -45 -118.5 -71t-150.5 -25t-144.5 39t-80.5 122zM557 317q47 0 107 37v457q-20 4 -45 11t-71.5 7t-76 -48
t-29.5 -190q0 -141 34 -207.5t81 -66.5z" />
    <glyph glyph-name="e" unicode="e" horiz-adv-x="1028" 
d="M629 262q129 0 301 100l24 -278q-115 -61 -203 -88t-208 -27q-238 0 -367 139t-129 441q0 301 129 442.5t363 141.5q432 0 432 -490v-186h-525q6 -111 54.5 -153t128.5 -42zM616 657q0 96 -16 134t-71.5 38t-69 -44t-13.5 -128h170z" />
    <glyph glyph-name="f" unicode="f" horiz-adv-x="690" 
d="M662 1284q-136 0 -136 -104v-78h258l-41 -293h-217v-903q0 -176 -98.5 -258t-238.5 -82t-267 53l31 299q69 -22 105 -22q85 0 85 94v819h-127v293h127v61q0 220 125.5 326t319.5 106t327 -47l-63 -299q-109 35 -190 35z" />
    <glyph glyph-name="g" unicode="g" horiz-adv-x="1011" 
d="M502 543q86 0 86 168q0 100 -23.5 134t-64.5 34t-65.5 -35t-24.5 -131q0 -170 92 -170zM197 401q-131 114 -131 308t120.5 309t317.5 115q71 0 172 -31h368v-303l-122 10q12 -66 12 -129t-32 -142t-119 -167t-281 -88q-57 0 -99 8q-18 -12 -32.5 -24.5t-14.5 -37.5
t48.5 -34t122 -15t157.5 -17t206 -62.5t122 -221.5q0 -199 -154.5 -304t-406.5 -105t-373 83.5t-121 213.5q0 80 45 134t107 76q-41 33 -62.5 71t-21.5 110q0 143 172 243zM612 -197q0 33 -26.5 49.5t-66.5 25.5t-90 14.5t-95 11.5q-18 -10 -31.5 -34t-13.5 -50
q0 -47 53 -67.5t118.5 -20.5t108.5 19t43 52z" />
    <glyph glyph-name="h" unicode="h" horiz-adv-x="1175" 
d="M766 1133q321 0 321 -349v-784h-382v664q0 90 -113 90q-35 0 -100 -13v-741h-383v1495l383 41v-489q122 86 274 86z" />
    <glyph glyph-name="i" unicode="i" horiz-adv-x="600" 
d="M492 1536v-311h-383v311h383zM492 1102v-1102h-383v1102h383z" />
    <glyph glyph-name="j" unicode="j" horiz-adv-x="604" 
d="M496 1536v-311h-383v311h383zM113 -10v1112h383v-1196q0 -175 -99 -257.5t-239 -82.5t-267 53l31 299q69 -22 105 -22q86 0 86 94z" />
    <glyph glyph-name="k" unicode="k" horiz-adv-x="1091" 
d="M496 0h-383v1495l383 41v-780l247 346h387l-286 -447l327 -655h-436l-194 420l-45 -64v-356z" />
    <glyph glyph-name="l" unicode="l" horiz-adv-x="620" 
d="M565 301q44 0 84 18v-294q-113 -49 -156.5 -52.5t-78.5 -3.5q-160 0 -236 82t-76 268v1176l383 41v-1153q0 -82 80 -82z" />
    <glyph glyph-name="m" unicode="m" horiz-adv-x="1757" 
d="M592 754q-35 0 -100 -13v-741h-383v1102h299v-123q154 154 350 154t272 -123q142 123 306 123t248.5 -82t84.5 -267v-784h-383v664q0 51 -28.5 70.5t-69.5 19.5t-109 -13q2 -10 2 -13v-728h-385v690q0 64 -104 64z" />
    <glyph glyph-name="n" unicode="n" horiz-adv-x="1177" 
d="M410 979q148 154 376 154q134 0 219 -82t85 -267v-784h-383v664q0 90 -113 90q-30 0 -102 -13v-741h-383v1102h301v-123z" />
    <glyph glyph-name="o" unicode="o" horiz-adv-x="1128" 
d="M564 840q-64 0 -96 -64.5t-32 -225.5t32 -224.5t96 -63.5t96 63.5t32 224.5t-32 225.5t-96 64.5zM563 1133q518 0 518 -584q0 -301 -139 -440.5t-381 -139.5t-378 139.5t-136 441.5t135 442.5t381 140.5z" />
    <glyph glyph-name="p" unicode="p" horiz-adv-x="1179" 
d="M585 279q40 0 92 21t52 251q0 229 -54 236.5t-88 7.5t-95 -13v-485q53 -18 93 -18zM663 -31q-97 0 -171 23v-402l-383 -61v1573h319v-123q143 154 327 154q185 0 281.5 -123t96.5 -515t-186.5 -459t-283.5 -67z" />
    <glyph glyph-name="q" unicode="q" horiz-adv-x="1124" 
d="M47 536q0 296 113.5 446.5t310.5 150.5q83 0 146 -31.5t128 -81.5v80l297 2v-1512l-378 -61v510q-115 -70 -206 -70q-190 0 -300.5 135.5t-110.5 431.5zM573 283q41 0 91 30v457q-46 27 -90 27q-81 0 -106.5 -68.5t-25.5 -172.5q0 -103 9.5 -153.5t25 -77t35.5 -34.5
t61 -8z" />
    <glyph glyph-name="r" unicode="r" horiz-adv-x="923" 
d="M564 768q-36 0 -68 -49v-719h-383v1102h315v-135q74 92 137.5 129t151.5 37q153 0 192 -112t39 -308l-332 -21q-2 29 -9 52.5t-43 23.5z" />
    <glyph glyph-name="s" unicode="s" horiz-adv-x="913" 
d="M403.5 262q96.5 0 96.5 47q0 23 -32 42.5t-129.5 66.5t-185 125.5t-87.5 228.5q0 151 107 256t304 105t292.5 -97.5t111.5 -251.5l-299 -59q-4 59 -23 91t-77 32t-58 -57q0 -35 34 -58.5t83 -48.5t191 -90.5t142 -267.5q0 -153 -104 -255t-308 -102t-301.5 59.5
t-133.5 86.5l100 272q180 -125 276.5 -125z" />
    <glyph glyph-name="t" unicode="t" horiz-adv-x="782" 
d="M811 78q-184 -111 -331 -111q-161 0 -250 80.5t-89 224.5v537h-147v293h160v174l370 98v-272h260l-41 -293h-219v-403q0 -89 86 -89q63 0 140 35z" />
    <glyph glyph-name="u" unicode="u" horiz-adv-x="1105" 
d="M455 1102v-721q0 -119 98 -119t98 119v721h383v-742q0 -189 -141 -290t-340 -101t-340 101t-141 290v742h383z" />
    <glyph glyph-name="v" unicode="v" horiz-adv-x="1032" 
d="M387 1102l154 -705l135 705h377l-314 -1102h-436l-323 1102h407z" />
    <glyph glyph-name="w" unicode="w" horiz-adv-x="1622" 
d="M387 1102l105 -658l137 658h422l125 -658l90 658h376l-280 -1102h-420l-125 674l-133 -674h-410l-294 1102h407z" />
    <glyph glyph-name="x" unicode="x" horiz-adv-x="1026" 
d="M387 1102l133 -305l148 305h393l-324 -537l299 -565h-415l-136 293l-145 -293h-375l305 545l-288 557h405z" />
    <glyph glyph-name="y" unicode="y" horiz-adv-x="1040" 
d="M-27 -82q84 -43 169 -43t113 22.5t43 50t34 70.5l18 45l-395 1039h401l176 -613l158 613h371l-334 -1032q-94 -287 -214 -403t-337 -116q-150 0 -289 60z" />
    <glyph glyph-name="z" unicode="z" horiz-adv-x="954" 
d="M913 1102v-246l-393 -559h402v-297h-875v231l391 574h-383v297h858z" />
    <glyph glyph-name="braceleft" unicode="{" horiz-adv-x="757" 
d="M180 -172v446q0 70 -44 87.5t-116 17.5v307q72 0 116 17.5t44 87.5v448q0 168 94.5 247t243.5 79t240 -43l-56 -273q-58 29 -110 29q-78 0 -78 -72v-467q0 -68 -35 -125t-106 -82q72 -25 106.5 -82t34.5 -124v-465q0 -72 78 -72q52 0 110 29l56 -273q-88 -43 -239 -43
t-245 79t-94 247z" />
    <glyph glyph-name="bar" unicode="|" horiz-adv-x="585" 
d="M463 1536v-2007h-340v2007h340z" />
    <glyph glyph-name="braceright" unicode="}" horiz-adv-x="757" 
d="M578 791q0 -69 44 -87t115 -18v-307q-71 1 -115 -17t-44 -88v-446q0 -168 -94 -247t-243 -79q-148 0 -241 43l55 273q67 -29 111 -29q78 0 78 72v465q0 68 35 125t106 81q-73 25 -107 82t-34 125v467q0 72 -78 72q-56 0 -111 -29l-55 273q83 41 236 42t247 -78t95 -247
v-448z" />
    <glyph glyph-name="asciitilde" unicode="~" 
d="M538 536.5q-104 32.5 -141 32.5t-59.5 -12t-36.5 -74l-270 90q45 147 123 224t221 77q79 0 186 -33.5t135 -33.5q29 0 49.5 13.5t36.5 72.5l271 -90q-67 -220 -173 -259.5t-172 -39.5t-170 32.5z" />
    <glyph glyph-name="exclamdown" unicode="&#xa1;" horiz-adv-x="655" 
d="M518 729h-383v373h383v-373zM537 -332h-418l33 940h352z" />
    <glyph glyph-name="cent" unicode="&#xa2;" 
d="M700 -180h-278v305q-162 41 -251 176t-89 396t86 390.5t254 165.5v283h278v-274q172 -27 242 -139.5t70 -293.5l-346 -28q0 80 -15 123t-71 43q-57 0 -85 -53.5t-28 -179.5t16.5 -177t52 -91t128.5 -40q161 0 319 92l25 -297q-169 -89 -308 -108v-293z" />
    <glyph glyph-name="sterling" unicode="&#xa3;" 
d="M561 483q0 -92 -63 -164h555v-319h-1014v262q160 58 160 195q0 57 -13 108h-186v266h166q-12 171 -12 173v20q0 302 164.5 371t293.5 69q229 0 343 -102t130 -334l-368 -37q0 125 -107 125q-92 0 -92 -119v-17q0 -18 14 -149h392v-266h-367q4 -54 4 -57v-25z" />
    <glyph glyph-name="currency" unicode="&#xa4;" 
d="M672 682q0 53 -38 92t-91.5 39t-91 -39t-37.5 -92t37.5 -92t91 -39t91.5 39t38 92zM541 1094q108 0 192 -45l166 165l176 -176l-166 -168q41 -82 41 -186t-41 -186l166 -170l-176 -176l-166 165q-81 -45 -189 -45t-192 45l-166 -165l-176 176l168 168q-43 80 -43 185
t43 189l-168 168l176 176l166 -165q81 45 189 45z" />
    <glyph glyph-name="yen" unicode="&#xa5;" 
d="M45 831h199l-281 603h404l178 -492l182 492h395l-282 -603h186v-266h-295v-565h-377v565h-309v266z" />
    <glyph glyph-name="brokenbar" unicode="&#xa6;" horiz-adv-x="585" 
d="M463 332v-803h-340v803h340zM463 1536v-803h-340v803h340z" />
    <glyph glyph-name="section" unicode="&#xa7;" horiz-adv-x="1099" 
d="M336 733q0 -43 32.5 -72.5t88 -60.5t130.5 -67.5t158 -86.5q13 22 13 57q0 36 -33 60.5t-89 54l-129 68.5t-153 105q-18 -15 -18 -58zM524 1081q0 -43 41 -75.5t101.5 -64.5l131 -66.5t172 -114t101.5 -223.5q0 -174 -102 -261q20 -40 20 -83q0 -203 -131 -304.5
t-364 -101.5q-147 0 -256 50t-201 132l141 297q171 -166 309 -166q33 0 56.5 14.5t23.5 43t-39 55.5t-98 55.5t-128 65.5t-167 123.5t-98 252.5q0 167 102 253q-20 43 -20 119t33.5 149.5t127.5 153t324 79.5t346 -121t131 -292l-362 -43q-4 147 -109 147q-86 0 -86 -74z
" />
    <glyph glyph-name="dieresis" unicode="&#xa8;" horiz-adv-x="1024" 
d="M840 1520v-291h-281v291h281zM465 1520v-291h-281v291h281z" />
    <glyph glyph-name="copyright" unicode="&#xa9;" horiz-adv-x="1523" 
d="M360 293.5q165 -174.5 400 -174.5t402 175.5t167 422.5q0 123 -45 232.5t-166.5 237.5t-357.5 128q-235 0 -400 -174.5t-165 -423.5t165 -423.5zM51 716.5q0 155.5 55.5 292t152.5 238t226 159.5t276.5 58t276.5 -58t226.5 -159.5t153 -238t55.5 -292t-55.5 -291.5
t-153 -237.5t-226.5 -160t-276.5 -58.5t-276.5 58.5t-226 160t-152.5 237.5t-55.5 291.5zM831 496q90 0 207 75l58 -194q-61 -45 -145.5 -74t-167.5 -29q-171 0 -282.5 113.5t-111.5 327.5q0 446 387 446q152 0 235 -85t83 -226l-228 -35q-4 70 -29.5 94.5t-74.5 24.5
t-83 -48t-34 -169t48 -171t138 -50z" />
    <glyph glyph-name="ordfeminine" unicode="&#xaa;" horiz-adv-x="880" 
d="M74 899q0 237 403 256v53q0 37 -15.5 51.5t-63.5 14.5t-48 -84l-248 20q8 129 100 191.5t250 62.5t234 -68.5t76 -172.5v-287q0 -43 37 -43t90 29l10 -174q-72 -68 -183 -68t-145 39t-39 67q-41 -53 -102.5 -80.5t-115.5 -27.5q-106 0 -173 56.5t-67 164.5zM342 940
q0 -55 61 -55q37 0 74 22v111q-135 -10 -135 -78z" />
    <glyph glyph-name="guillemotleft" unicode="&#xab;" horiz-adv-x="1288" 
d="M336 123l-336 487l336 492h366l-294 -492l294 -487h-366zM922 123l-336 487l336 492h366l-295 -492l295 -487h-366z" />
    <glyph glyph-name="logicalnot" unicode="&#xac;" 
d="M991 840v-609h-317v291h-580v318h897z" />
    <glyph glyph-name="registered" unicode="&#xae;" 
d="M512 977h23q35 0 48 11t13 39t-13.5 39t-47.5 11h-23v-100zM512 840v-168h-190v545h204q133 0 197.5 -40t64.5 -146t-83 -140l104 -219h-197l-75 168h-25zM922 940q0 82 -30 154.5t-81 128t-119.5 87t-148.5 31.5t-148.5 -31.5t-120 -87t-81 -128t-29.5 -154.5
t29.5 -154.5t81 -128t120 -87t148.5 -31.5t148.5 31.5t119.5 87t81 128t30 154.5zM1044 940q0 -109 -38.5 -205t-107.5 -166.5t-160 -111.5t-195.5 -41t-195.5 41t-159.5 111.5t-107.5 166.5t-39 205t39 205t107.5 166.5t159.5 111.5t195.5 41t195.5 -41t160 -111.5
t107.5 -166.5t38.5 -205z" />
    <glyph glyph-name="macron" unicode="&#xaf;" horiz-adv-x="1024" 
d="M188 1505h621v-262h-621v262z" />
    <glyph glyph-name="degree" unicode="&#xb0;" horiz-adv-x="655" 
d="M240 1183q0 -36 25.5 -61.5t61.5 -25.5t61.5 25.5t25.5 61.5t-26 61.5t-62 25.5t-61 -25.5t-25 -61.5zM128.5 1382.5q83.5 81.5 198.5 81.5t198 -83t83 -198t-81.5 -198.5t-199.5 -83.5t-200 82t-82 200t83.5 199.5z" />
    <glyph glyph-name="plusminus" unicode="&#xb1;" 
d="M991 -2h-897v317h897v-317zM700 1133v-209h291v-318h-291v-217h-317v217h-289v318h289v209h317z" />
    <glyph glyph-name="twosuperior" unicode="&#xb2;" horiz-adv-x="655" 
d="M338 1202q0 47 -51 47t-58 -61l-225 53q23 98 93.5 160.5t206.5 62.5t215 -59t79 -175t-115 -239l-94 -100h223v-227h-583v176l264 282q45 45 45 80z" />
    <glyph glyph-name="threesuperior" unicode="&#xb3;" horiz-adv-x="655" 
d="M346 1198q0 51 -50 51t-58 -61l-226 53q23 98 93.5 160.5t206.5 62.5t215 -57t79 -168q0 -45 -26.5 -91t-85.5 -69q70 -18 100.5 -70.5t30.5 -113.5q0 -118 -83.5 -178t-197.5 -60q-215 0 -326 97l103 184q72 -72 168 -72q61 0 61 48t-57 49h-84v184h86q51 0 51 51z" />
    <glyph glyph-name="acute" unicode="&#xb4;" horiz-adv-x="1024" 
d="M815 1536l-244 -324h-299l177 324h366z" />
    <glyph glyph-name="mu" unicode="&#xb5;" horiz-adv-x="1142" 
d="M731 -31q-168 0 -239 68v-447l-383 -61v1573h383v-701q0 -119 98 -118.5t98 118.5v701h383v-742q0 -178 -86 -284.5t-254 -106.5z" />
    <glyph glyph-name="mu" unicode="&#x3bc;" horiz-adv-x="1142" 
d="M731 -31q-168 0 -239 68v-447l-383 -61v1573h383v-701q0 -119 98 -118.5t98 118.5v701h383v-742q0 -178 -86 -284.5t-254 -106.5z" />
    <glyph glyph-name="paragraph" unicode="&#xb6;" horiz-adv-x="1490" 
d="M575 750q40 0 60 4v362h-68q-92 0 -129 -37t-37 -151q0 -150 67 -164t107 -14zM1368 -209h-272v1325h-191v-1325h-270v649q-33 -8 -100 -8q-260 0 -382 127t-122 388t131 374t405 113h801v-1643z" />
    <glyph glyph-name="periodcentered" unicode="&#xb7;" horiz-adv-x="499" 
d="M440 868v-372h-383v372h383z" />
    <glyph glyph-name="cedilla" unicode="&#xb8;" horiz-adv-x="1024" 
d="M686 0q57 -61 57 -173t-83 -186.5t-197 -74.5t-204.5 41t-131.5 112l145 154q44 -57 103 -57q66 0 65 67q0 53 -51 117h297z" />
    <glyph glyph-name="onesuperior" unicode="&#xb9;" horiz-adv-x="655" 
d="M63 895h156v256l-156 -76v240l240 119h201v-539h137v-231h-578v231z" />
    <glyph glyph-name="ordmasculine" unicode="&#xba;" horiz-adv-x="880" 
d="M438 1268q-47 0 -70.5 -43t-23.5 -153t23.5 -150.5t70.5 -40.5t72 40.5t25 150.5t-25 153t-72 43zM438 1464q387 0 387 -393q0 -203 -103.5 -297t-284.5 -94t-282.5 94t-101.5 298t100.5 298t284.5 94z" />
    <glyph glyph-name="guillemotright" unicode="&#xbb;" horiz-adv-x="1288" 
d="M367 123h-367l295 487l-295 492h367l335 -492zM952 123h-366l295 487l-295 492h366l336 -492z" />
    <glyph glyph-name="onequarter" unicode="&#xbc;" horiz-adv-x="1703" 
d="M51 895h156v256l-156 -76v240l240 119h201v-539h137v-231h-578v231zM1450 1434l-913 -1434h-283l911 1434h285zM1317 324v200l-107 -200h107zM1579 768v-444h72v-205h-72v-119h-262v119h-346v188l239 461h369z" />
    <glyph glyph-name="onehalf" unicode="&#xbd;" horiz-adv-x="1703" 
d="M1354 539q0 47 -51 47t-58 -62l-225 54q23 98 93.5 160.5t206.5 62.5t215 -59.5t79 -174.5t-115 -239l-94 -101h223v-227h-584v176l265 283q45 45 45 80zM51 895h156v256l-156 -76v240l240 119h201v-539h137v-231h-578v231zM1450 1434l-913 -1434h-283l911 1434h285z" />
    <glyph glyph-name="threequarters" unicode="&#xbe;" horiz-adv-x="1703" 
d="M346 1198q0 51 -50 51t-58 -61l-226 53q23 98 93.5 160.5t206.5 62.5t215 -56t79 -167q0 -45 -26.5 -92t-85.5 -70q70 -18 100.5 -70.5t30.5 -113.5q0 -118 -83.5 -178t-197.5 -60q-215 0 -326 97l103 184q72 -72 168 -72q61 0 61 48t-57 49h-84v184h86q51 0 51 51z
M1450 1434l-913 -1434h-283l911 1434h285zM1317 324v200l-107 -200h107zM1579 768v-444h72v-205h-72v-119h-262v119h-346v188l239 461h369z" />
    <glyph glyph-name="questiondown" unicode="&#xbf;" horiz-adv-x="813" 
d="M270 729v373h383v-373h-383zM783 -256q-120 -106 -342 -106t-347 106q-123 106 -123 289q0 113 59 203t178 198q53 51 62 89q10 39 11 85h362q-4 -162 -33 -220q-28 -58 -68 -101t-88 -87t-72 -70q-22 -26 -22 -62q0 -81 89 -80q98 0 102 110l360 -69q-8 -179 -128 -285z
" />
    <glyph glyph-name="Agrave" unicode="&#xc0;" horiz-adv-x="1193" 
d="M440 537h258l-131 510zM778 223h-418l-55 -223h-336l404 1434h452l400 -1434h-389zM571 1868l177 -324h-299l-244 324h366z" />
    <glyph glyph-name="Aacute" unicode="&#xc1;" horiz-adv-x="1193" 
d="M440 537h258l-131 510zM778 223h-418l-55 -223h-336l404 1434h452l400 -1434h-389zM1001 1868l-243 -324h-299l176 324h366z" />
    <glyph glyph-name="Acircumflex" unicode="&#xc2;" horiz-adv-x="1193" 
d="M440 537h258l-131 510zM778 223h-418l-55 -223h-336l404 1434h452l400 -1434h-389zM498 1544h-289l217 324h324l217 -324h-310l-69 127z" />
    <glyph glyph-name="Atilde" unicode="&#xc3;" horiz-adv-x="1193" 
d="M440 537h258l-131 510zM778 223h-418l-55 -223h-336l404 1434h452l400 -1434h-389zM676 1800q24 0 43 11q20 11 29 61l208 -82q-37 -131 -97 -188t-150 -58q-49 0 -113 28t-94 27q-29 0 -47 -10t-29 -49l-209 80q47 231 223 231q56 1 134 -25t102 -26z" />
    <glyph glyph-name="Adieresis" unicode="&#xc4;" horiz-adv-x="1193" 
d="M440 537h258l-131 510zM778 223h-418l-55 -223h-336l404 1434h452l400 -1434h-389zM913 1851v-290h-280v290h280zM539 1851v-290h-281v290h281z" />
    <glyph glyph-name="Aring" unicode="&#xc5;" horiz-adv-x="1193" 
d="M440 537h258l-131 510zM778 223h-418l-55 -223h-336l404 1434h452l400 -1434h-389zM651 1706q1 61 -65 61t-66 -61t66 -61t65 61zM831 1706q-1 -88 -67 -147t-178 -59t-180 58q-66 60 -66 148t67 147t179 59t179 -58q66 -60 66 -148z" />
    <glyph glyph-name="AE" unicode="&#xc6;" horiz-adv-x="1732" 
d="M782 537v483l-223 -483h223zM1632 1434v-338h-473v-232h449v-307h-449v-219h502v-338h-879v223h-356l-111 -223h-374l702 1434h989z" />
    <glyph glyph-name="Ccedilla" unicode="&#xc7;" horiz-adv-x="1169" 
d="M639 1116q-113 0 -162 -89t-49 -257t23.5 -249t79.5 -142.5t210 -61.5t344 103l31 -326q-146 -84 -287 -110q45 -68 45 -141q0 -129 -83 -203t-197 -74t-204.5 41t-131.5 112l145 154q44 -57 103 -57q66 0 65 67q0 45 -36 97q-241 38 -367.5 222t-126.5 548t155.5 539
t444.5 175q361 0 432.5 -187t71.5 -325l-365 -26q0 190 -141 190z" />
    <glyph glyph-name="Egrave" unicode="&#xc8;" horiz-adv-x="1073" 
d="M973 1434v-338h-473v-232h448v-307h-448v-219h501v-338h-878v1434h850zM553 1868l176 -324h-299l-244 324h367z" />
    <glyph glyph-name="Eacute" unicode="&#xc9;" horiz-adv-x="1073" 
d="M973 1434v-338h-473v-232h448v-307h-448v-219h501v-338h-878v1434h850zM928 1868l-244 -324h-299l176 324h367z" />
    <glyph glyph-name="Ecircumflex" unicode="&#xca;" horiz-adv-x="1073" 
d="M973 1434v-338h-473v-232h448v-307h-448v-219h501v-338h-878v1434h850zM459 1544h-289l217 324h324l217 -324h-310l-69 127z" />
    <glyph glyph-name="Edieresis" unicode="&#xcb;" horiz-adv-x="1073" 
d="M973 1434v-338h-473v-232h448v-307h-448v-219h501v-338h-878v1434h850zM877 1851v-290h-281v290h281zM502 1851v-290h-281v290h281z" />
    <glyph glyph-name="Igrave" unicode="&#xcc;" horiz-adv-x="622" 
d="M500 1434v-1434h-377v1434h377zM289 1868l176 -324h-299l-244 324h367z" />
    <glyph glyph-name="Iacute" unicode="&#xcd;" horiz-adv-x="622" 
d="M500 1434v-1434h-377v1434h377zM705 1868l-244 -324h-299l176 324h367z" />
    <glyph glyph-name="Icircumflex" unicode="&#xce;" horiz-adv-x="622" 
d="M500 1434v-1434h-377v1434h377zM223 1544h-289l218 324h323l217 -324h-309l-70 127z" />
    <glyph glyph-name="Idieresis" unicode="&#xcf;" horiz-adv-x="622" 
d="M500 1434v-1434h-377v1434h377zM641 1851v-290h-281v290h281zM266 1851v-290h-280v290h280z" />
    <glyph glyph-name="Eth" unicode="&#xd0;" horiz-adv-x="1325" 
d="M520 864h205v-295h-205v-231h152q55 0 97 12t71 54q57 83 57 319q0 237 -57 310q-29 38 -71 50t-97 13h-152v-232zM18 864h125v570h547q291 0 443 -168t151 -527q0 -567 -346 -697q-113 -42 -256 -42h-539v569h-125v295z" />
    <glyph glyph-name="Ntilde" unicode="&#xd1;" horiz-adv-x="1384" 
d="M932 1434h371v-1434h-390l-421 762v-762h-369v1434h391l418 -791v791zM802 1800q24 0 44 11t28 61l209 -82q-37 -131 -97 -188t-150 -58q-49 0 -113 28t-94 27q-29 0 -47 -10t-29 -49l-209 80q47 231 223 231q56 1 134 -25q77 -26 101 -26z" />
    <glyph glyph-name="Ograve" unicode="&#xd2;" horiz-adv-x="1275" 
d="M637 1116q-104 0 -161 -85q-58 -85 -58 -314q0 -329 134 -383q89 -36 167 0q114 49 116 380q1 331 -116 386q-37 16 -82 16zM638 1464q124 0 232 -39t190 -128q175 -192 175 -581t-175 -581q-153 -166 -423 -166q-419 0 -549 397q-47 142 -47 349t47 350t128 232
q82 89 190 128t232 39zM618 1868l177 -324h-299l-244 324h366z" />
    <glyph glyph-name="Oacute" unicode="&#xd3;" horiz-adv-x="1275" 
d="M637 1116q-104 0 -161 -85q-58 -85 -58 -314q0 -329 134 -383q89 -36 167 0q114 49 116 380q1 331 -116 386q-37 16 -82 16zM638 1464q124 0 232 -39t190 -128q175 -192 175 -581t-175 -581q-153 -166 -423 -166q-419 0 -549 397q-47 142 -47 349t47 350t128 232
q82 89 190 128t232 39zM1022 1868l-244 -324h-299l176 324h367z" />
    <glyph glyph-name="Ocircumflex" unicode="&#xd4;" horiz-adv-x="1275" 
d="M637 1116q-104 0 -161 -85q-58 -85 -58 -314q0 -329 134 -383q89 -36 167 0q114 49 116 380q1 331 -116 386q-37 16 -82 16zM638 1464q124 0 232 -39t190 -128q175 -192 175 -581t-175 -581q-153 -166 -423 -166q-419 0 -549 397q-47 142 -47 349t47 350t128 232
q82 89 190 128t232 39zM547 1544h-289l217 324h324l217 -324h-309l-70 127z" />
    <glyph glyph-name="Otilde" unicode="&#xd5;" horiz-adv-x="1275" 
d="M637 1116q-104 0 -161 -85q-58 -85 -58 -314q0 -329 134 -383q89 -36 167 0q114 49 116 380q1 331 -116 386q-37 16 -82 16zM638 1464q124 0 232 -39t190 -128q175 -192 175 -581t-175 -581q-153 -166 -423 -166q-419 0 -549 397q-47 142 -47 349t47 350t128 232
q82 89 190 128t232 39zM726 1800q24 0 44 11t29 61l209 -82q-38 -131 -98 -188t-150 -58q-47 0 -112 28q-66 28 -95 27q-29 0 -47 -10t-29 -49l-209 80q47 231 224 231q55 1 133 -25q77 -26 101 -26z" />
    <glyph glyph-name="Odieresis" unicode="&#xd6;" horiz-adv-x="1275" 
d="M637 1116q-104 0 -161 -85q-58 -85 -58 -314q0 -329 134 -383q89 -36 167 0q114 49 116 380q1 331 -116 386q-37 16 -82 16zM638 1464q124 0 232 -39t190 -128q175 -192 175 -581t-175 -581q-153 -166 -423 -166q-419 0 -549 397q-47 142 -47 349t47 350t128 232
q82 89 190 128t232 39zM965 1851v-290h-281v290h281zM590 1851v-290h-281v290h281z" />
    <glyph glyph-name="multiply" unicode="&#xd7;" 
d="M264 1184l279 -279l276 279l225 -226l-278 -278l278 -279l-225 -223l-276 279l-277 -279l-225 225l276 277l-278 278z" />
    <glyph glyph-name="Oslash" unicode="&#xd8;" horiz-adv-x="1275" 
d="M506 367q50 -50 141 -50t140 87t49 313q0 78 -9 155zM418 717q0 -102 12 -176l334 522q-46 53 -138 53t-150 -86.5t-58 -312.5zM1081 1272q154 -192 154 -570q0 -377 -164 -555t-434 -178q-192 0 -330 86l-90 -141l-131 86l104 164q-149 186 -149 563t163.5 557
t432.5 180q190 0 328 -86l86 135l135 -77z" />
    <glyph glyph-name="Ugrave" unicode="&#xd9;" horiz-adv-x="1345" 
d="M856 522v912h377v-922q0 -388 -305 -503q-106 -40 -254 -40q-282 0 -422 147q-141 147 -139 396v922h376v-912q0 -203 185 -205q182 0 182 205zM657 1868l177 -324h-299l-244 324h366z" />
    <glyph glyph-name="Uacute" unicode="&#xda;" horiz-adv-x="1345" 
d="M856 522v912h377v-922q0 -388 -305 -503q-106 -40 -254 -40q-282 0 -422 147q-141 147 -139 396v922h376v-912q0 -203 185 -205q182 0 182 205zM1059 1868l-244 -324h-299l176 324h367z" />
    <glyph glyph-name="Ucircumflex" unicode="&#xdb;" horiz-adv-x="1345" 
d="M856 522v912h377v-922q0 -388 -305 -503q-106 -40 -254 -40q-282 0 -422 147q-141 147 -139 396v922h376v-912q0 -203 185 -205q182 0 182 205zM582 1544h-289l217 324h324l217 -324h-310l-69 127z" />
    <glyph glyph-name="Udieresis" unicode="&#xdc;" horiz-adv-x="1345" 
d="M856 522v912h377v-922q0 -388 -305 -503q-106 -40 -254 -40q-282 0 -422 147q-141 147 -139 396v922h376v-912q0 -203 185 -205q182 0 182 205zM999 1851v-290h-280v290h280zM625 1851v-290h-281v290h281z" />
    <glyph glyph-name="Yacute" unicode="&#xdd;" horiz-adv-x="1150" 
d="M764 0h-377v473l-428 961h418l201 -545l206 545h408l-428 -961v-473zM961 1890l-244 -323h-299l176 323h367z" />
    <glyph glyph-name="Thorn" unicode="&#xde;" horiz-adv-x="1165" 
d="M690.5 601q42.5 36 42.5 147t-36.5 147.5t-129.5 36.5h-67v-363q20 -4 84 -4t106.5 36zM500 1434v-185h67q297 0 417 -100.5t120 -373.5t-122 -400t-382 -127q-68 0 -100 8v-256h-377v1434h377z" />
    <glyph glyph-name="germandbls" unicode="&#xdf;" horiz-adv-x="1206" 
d="M764 287q67 0 67 65q0 37 -36.5 65.5t-79.5 70.5t-80 106t-37 154t21.5 140t48 92t48 80t21.5 83t-33.5 75.5t-87.5 30.5t-92.5 -30.5t-38.5 -90.5v-1128h-383v1163q0 217 139.5 324.5t422.5 107.5t361.5 -136t78.5 -227t-22.5 -146.5t-49 -98.5l-49 -81t-22.5 -83
t38.5 -84l86 -89t86 -123t38.5 -165q0 -179 -90.5 -286t-274.5 -107t-304 88l118 273q27 -20 48.5 -31.5t56.5 -11.5z" />
    <glyph glyph-name="agrave" unicode="&#xe0;" horiz-adv-x="1062" 
d="M958 344q0 -61 66 -61q37 0 104 41l17 -258q-47 -45 -119 -71t-150 -26q-78 1 -125 27q-91 51 -102 127q-53 -74 -134 -114t-155 -40q-146 0 -236 83q-89 83 -87 239q0 179 165 280q147 92 373 101v78q0 54 -17 76t-66 22q-48 0 -64 -35t-16 -88l-336 29q12 184 131 281
q119 98 327 98t317 -99t107 -262v-428zM481 276q38 0 94 27v164q-74 -4 -110 -23q-66 -33 -68 -88q0 -80 84 -80zM512 1536l176 -324h-299l-244 324h367z" />
    <glyph glyph-name="aacute" unicode="&#xe1;" horiz-adv-x="1062" 
d="M958 344q0 -61 66 -61q37 0 104 41l17 -258q-47 -45 -119 -71t-150 -26q-78 1 -125 27q-91 51 -102 127q-53 -74 -134 -114t-155 -40q-146 0 -236 83q-89 83 -87 239q0 179 165 280q147 92 373 101v78q0 54 -17 76t-66 22q-48 0 -64 -35t-16 -88l-336 29q12 184 131 281
q119 98 327 98t317 -99t107 -262v-428zM481 276q38 0 94 27v164q-74 -4 -110 -23q-66 -33 -68 -88q0 -80 84 -80zM932 1536l-244 -324h-299l176 324h367z" />
    <glyph glyph-name="acircumflex" unicode="&#xe2;" horiz-adv-x="1062" 
d="M958 344q0 -61 66 -61q37 0 104 41l17 -258q-47 -45 -119 -71t-150 -26q-78 1 -125 27q-91 51 -102 127q-53 -74 -134 -114t-155 -40q-146 0 -236 83q-89 83 -87 239q0 179 165 280q147 92 373 101v78q0 54 -17 76t-66 22q-48 0 -64 -35t-16 -88l-336 29q12 184 131 281
q119 98 327 98t317 -99t107 -262v-428zM481 276q38 0 94 27v164q-74 -4 -110 -23q-66 -33 -68 -88q0 -80 84 -80zM446 1212h-288l217 324h323l217 -324h-309l-69 127z" />
    <glyph glyph-name="atilde" unicode="&#xe3;" horiz-adv-x="1062" 
d="M958 344q0 -61 66 -61q37 0 104 41l17 -258q-47 -45 -119 -71t-150 -26q-78 1 -125 27q-91 51 -102 127q-53 -74 -134 -114t-155 -40q-146 0 -236 83q-89 83 -87 239q0 179 165 280q147 92 373 101v78q0 54 -17 76t-66 22q-48 0 -64 -35t-16 -88l-336 29q12 184 131 281
q119 98 327 98t317 -99t107 -262v-428zM481 276q38 0 94 27v164q-74 -4 -110 -23q-66 -33 -68 -88q0 -80 84 -80zM453 1268q-27 0 -45 -10t-29 -50l-209 80q47 229 223 232q40 0 126 -25t109 -26q24 -1 44 11t28 60l209 -82q-37 -131 -97 -188t-150 -58q-43 0 -113 28
q-69 28 -96 28z" />
    <glyph glyph-name="adieresis" unicode="&#xe4;" horiz-adv-x="1062" 
d="M958 344q0 -61 66 -61q37 0 104 41l17 -258q-47 -45 -119 -71t-150 -26q-78 1 -125 27q-91 51 -102 127q-53 -74 -134 -114t-155 -40q-146 0 -236 83q-89 83 -87 239q0 179 165 280q147 92 373 101v78q0 54 -17 76t-66 22q-48 0 -64 -35t-16 -88l-336 29q12 184 131 281
q119 98 327 98t317 -99t107 -262v-428zM481 276q38 0 94 27v164q-74 -4 -110 -23q-66 -33 -68 -88q0 -80 84 -80zM864 1520v-291h-280v291h280zM489 1520v-291h-280v291h280z" />
    <glyph glyph-name="aring" unicode="&#xe5;" horiz-adv-x="1062" 
d="M958 344q0 -61 66 -61q37 0 104 41l17 -258q-47 -45 -119 -71t-150 -26q-78 1 -125 27q-91 51 -102 127q-53 -74 -134 -114t-155 -40q-146 0 -236 83q-89 83 -87 239q0 179 165 280q147 92 373 101v78q0 54 -17 76t-66 22q-48 0 -64 -35t-16 -88l-336 29q12 184 131 281
q119 98 327 98t317 -99t107 -262v-428zM481 276q38 0 94 27v164q-74 -4 -110 -23q-66 -33 -68 -88q0 -80 84 -80zM602 1374q0 62 -66 62t-65 -62q-1 -62 65 -61q66 0 66 61zM782 1374q0 -88 -66 -147t-180 -59q-112 0 -179 58q-67 60 -66 148q0 88 66 148q67 59 180 59
q113 1 179 -59t66 -148z" />
    <glyph glyph-name="ae" unicode="&#xe6;" horiz-adv-x="1497" 
d="M1085 657q0 96 -16 134t-71.5 38t-69 -44t-13.5 -128h170zM397 356q0 -80 84 -80q50 0 109 41q-14 79 -17 150q-119 -7 -147.5 -44.5t-28.5 -66.5zM1098 262q129 0 301 100l24 -278q-115 -61 -203 -88t-219 -27q-230 0 -333 144q-124 -144 -295 -144q-236 0 -286 116
t-50 208q0 174 155.5 272t382.5 107v78q0 53 -17 75.5t-66 22.5t-64.5 -35t-15.5 -88l-336 29q12 182 131 280.5t296 98.5t261 -62q82 62 244 62q432 0 432 -490v-186h-525q6 -111 54.5 -153t128.5 -42z" />
    <glyph glyph-name="ccedilla" unicode="&#xe7;" horiz-adv-x="995" 
d="M451 -117q0 44 -37 97q-178 31 -272.5 168t-94.5 431t119.5 424t382.5 130q327 0 371.5 -169t44.5 -272l-336 -28q0 80 -14.5 122.5t-71.5 42.5q-56 0 -78.5 -55.5t-22.5 -178.5q0 -124 12.5 -176t44.5 -94t117 -42q184 0 320 79l25 -278q-139 -75 -252 -98
q45 -68 45 -142q0 -130 -83.5 -204t-197.5 -74t-204.5 41t-131.5 112l146 154q44 -57 102 -57q66 0 66 67z" />
    <glyph glyph-name="egrave" unicode="&#xe8;" horiz-adv-x="1028" 
d="M629 262q129 0 301 100l24 -278q-115 -61 -203 -88t-208 -27q-496 0 -496 572q0 309 129 450t363 142q432 0 432 -490v-186h-525q6 -111 54 -153t129 -42zM616 657q0 97 -16 135t-72 38t-68 -45q-13 -44 -14 -128h170zM524 1536l176 -324h-299l-243 324h366z" />
    <glyph glyph-name="eacute" unicode="&#xe9;" horiz-adv-x="1028" 
d="M629 262q129 0 301 100l24 -278q-115 -61 -203 -88t-208 -27q-496 0 -496 572q0 309 129 450t363 142q432 0 432 -490v-186h-525q6 -111 54 -153t129 -42zM616 657q0 97 -16 135t-72 38t-68 -45q-13 -44 -14 -128h170zM913 1536l-243 -324h-299l176 324h366z" />
    <glyph glyph-name="ecircumflex" unicode="&#xea;" horiz-adv-x="1028" 
d="M629 262q129 0 301 100l24 -278q-115 -61 -203 -88t-208 -27q-496 0 -496 572q0 309 129 450t363 142q432 0 432 -490v-186h-525q6 -111 54 -153t129 -42zM616 657q0 97 -16 135t-72 38t-68 -45q-13 -44 -14 -128h170zM426 1212h-289l217 324h324l217 -324h-309l-70 127z
" />
    <glyph glyph-name="edieresis" unicode="&#xeb;" horiz-adv-x="1028" 
d="M629 262q129 0 301 100l24 -278q-115 -61 -203 -88t-208 -27q-496 0 -496 572q0 309 129 450t363 142q432 0 432 -490v-186h-525q6 -111 54 -153t129 -42zM616 657q0 97 -16 135t-72 38t-68 -45q-13 -44 -14 -128h170zM844 1520v-291h-281v291h281zM469 1520v-291h-281
v291h281z" />
    <glyph glyph-name="igrave" unicode="&#xec;" horiz-adv-x="600" 
d="M492 1102v-1102h-383v1102h383zM287 1536l176 -324h-299l-244 324h367z" />
    <glyph glyph-name="iacute" unicode="&#xed;" horiz-adv-x="600" 
d="M492 1102v-1102h-383v1102h383zM690 1536l-244 -324h-299l177 324h366z" />
    <glyph glyph-name="icircumflex" unicode="&#xee;" horiz-adv-x="600" 
d="M492 1102v-1102h-383v1102h383zM211 1212h-289l217 324h324l217 -324h-309l-70 127z" />
    <glyph glyph-name="idieresis" unicode="&#xef;" horiz-adv-x="600" 
d="M492 1102v-1102h-383v1102h383zM631 1520v-291h-281v291h281zM256 1520v-291h-281v291h281z" />
    <glyph glyph-name="eth" unicode="&#xf0;" horiz-adv-x="1128" 
d="M564 840q-64 0 -96 -64.5t-32 -225.5t32 -224.5t96 -63.5t96 63.5t32 224.5t-32 225.5t-96 64.5zM1081 607q0 -334 -139 -486t-381 -152t-378 139.5t-136 441.5t135 442.5t381 140.5q33 0 70 -11q-14 34 -55 103l-361 -43v149l281 33q-70 98 -140 172h373
q61 -70 100 -131l244 31v-150l-166 -20q172 -325 172 -659z" />
    <glyph glyph-name="ntilde" unicode="&#xf1;" horiz-adv-x="1177" 
d="M492 0h-383v1102h301v-123q148 153 376 153q134 0 219 -81q85 -82 85 -267v-784h-383v664q0 51 -32 70q-59 35 -183 7v-741zM511 1268q-26 0 -44 -10t-29 -50l-209 80q47 229 224 232q44 0 128 -26q83 -26 107 -26t43 12q20 12 29 60l209 -82q-37 -131 -97 -188t-151 -58
q-41 0 -112 28q-72 28 -98 28z" />
    <glyph glyph-name="ograve" unicode="&#xf2;" horiz-adv-x="1128" 
d="M692 550q0 162 -32 226t-96 64t-96 -65t-32 -225t32 -224t96 -64t96 64t32 224zM47 550q0 302 135 442t383 141q248 -1 382 -141t134 -442t-139 -441t-381 -139t-378 138q-136 140 -136 442zM559 1536l176 -324h-299l-243 324h366z" />
    <glyph glyph-name="oacute" unicode="&#xf3;" horiz-adv-x="1128" 
d="M692 550q0 162 -32 226t-96 64t-96 -65t-32 -225t32 -224t96 -64t96 64t32 224zM47 550q0 302 135 442t383 141q248 -1 382 -141t134 -442t-139 -441t-381 -139t-378 138q-136 140 -136 442zM938 1536l-244 -324h-299l176 324h367z" />
    <glyph glyph-name="ocircumflex" unicode="&#xf4;" horiz-adv-x="1128" 
d="M692 550q0 162 -32 226t-96 64t-96 -65t-32 -225t32 -224t96 -64t96 64t32 224zM47 550q0 302 135 442t383 141q248 -1 382 -141t134 -442t-139 -441t-381 -139t-378 138q-136 140 -136 442zM473 1212h-289l217 324h324l217 -324h-309l-70 127z" />
    <glyph glyph-name="otilde" unicode="&#xf5;" horiz-adv-x="1128" 
d="M692 550q0 162 -32 226t-96 64t-96 -65t-32 -225t32 -224t96 -64t96 64t32 224zM47 550q0 302 135 442t383 141q248 -1 382 -141t134 -442t-139 -441t-381 -139t-378 138q-136 140 -136 442zM472 1268q-22 0 -40 -10t-29 -50l-208 80q23 111 59 153q67 77 164 79
q44 0 128 -26q82 -26 106 -26t44 12t29 60l209 -82q-37 -131 -97 -188t-151 -58q-41 0 -90 20q-50 20 -76 28t-48 8z" />
    <glyph glyph-name="odieresis" unicode="&#xf6;" horiz-adv-x="1128" 
d="M692 550q0 162 -32 226t-96 64t-96 -65t-32 -225t32 -224t96 -64t96 64t32 224zM47 550q0 302 135 442t383 141q248 -1 382 -141t134 -442t-139 -441t-381 -139t-378 138q-136 140 -136 442zM891 1520v-291h-281v291h281zM516 1520v-291h-280v291h280z" />
    <glyph glyph-name="divide" unicode="&#xf7;" 
d="M991 522h-897v318h897v-318zM717 459v-312h-342v312h342zM717 1212v-311h-342v311h342z" />
    <glyph glyph-name="oslash" unicode="&#xf8;" horiz-adv-x="1128" 
d="M692 549v21q0 22 -2 36l-223 -280q31 -63 96.5 -63.5t97 63t31.5 223.5zM566 840q-66 0 -98 -64.5t-32 -226.5v-55l223 280q-27 66 -93 66zM563 1133q195 0 316 -82l94 125l110 -74l-110 -141q109 -143 109 -428t-139.5 -424.5t-379.5 -139.5q-193 0 -313 82l-100 -129
l-105 78l111 139q-109 143 -109 428t135 425.5t381 140.5z" />
    <glyph glyph-name="ugrave" unicode="&#xf9;" horiz-adv-x="1105" 
d="M455 1102v-721q0 -119 98 -119t98 119v721h383v-742q0 -190 -141 -290q-141 -101 -339 -101q-197 0 -339 100q-143 100 -143 291v742h383zM537 1536l176 -324h-299l-244 324h367z" />
    <glyph glyph-name="uacute" unicode="&#xfa;" horiz-adv-x="1105" 
d="M455 1102v-721q0 -119 98 -119t98 119v721h383v-742q0 -190 -141 -290q-141 -101 -339 -101q-197 0 -339 100q-143 100 -143 291v742h383zM938 1536l-244 -324h-299l176 324h367z" />
    <glyph glyph-name="ucircumflex" unicode="&#xfb;" horiz-adv-x="1105" 
d="M455 1102v-721q0 -119 98 -119t98 119v721h383v-742q0 -190 -141 -290q-141 -101 -339 -101q-197 0 -339 100q-143 100 -143 291v742h383zM463 1212h-289l217 324h324l217 -324h-309l-70 127z" />
    <glyph glyph-name="udieresis" unicode="&#xfc;" horiz-adv-x="1105" 
d="M455 1102v-721q0 -119 98 -119t98 119v721h383v-742q0 -190 -141 -290q-141 -101 -339 -101q-197 0 -339 100q-143 100 -143 291v742h383zM881 1520v-291h-281v291h281zM506 1520v-291h-281v291h281z" />
    <glyph glyph-name="yacute" unicode="&#xfd;" horiz-adv-x="1040" 
d="M-27 -82q84 -43 169 -43q86 1 113 23t43 50q15 28 34 70l18 45l-395 1039h401l176 -613l158 613h371l-334 -1032q-94 -287 -215 -403t-336 -116q-150 0 -289 60zM924 1536l-244 -324h-299l176 324h367z" />
    <glyph glyph-name="thorn" unicode="&#xfe;" horiz-adv-x="1179" 
d="M585 279q40 0 92 21t52 251q0 229 -54 236.5t-88 7.5t-95 -13v-485q53 -18 93 -18zM492 1036q117 97 282 97t262 -123t97 -515t-186.5 -459t-283.5 -67t-171 23v-402l-383 -61v1966l383 41v-500z" />
    <glyph glyph-name="ydieresis" unicode="&#xff;" horiz-adv-x="1040" 
d="M-27 -82q84 -43 169 -43q86 1 113 23t43 50q15 28 34 70l18 45l-395 1039h401l176 -613l158 613h371l-334 -1032q-94 -287 -215 -403t-336 -116q-150 0 -289 60zM860 1520v-291h-280v291h280zM485 1520v-291h-280v291h280z" />
    <glyph glyph-name="Amacron" unicode="&#x100;" horiz-adv-x="1193" 
d="M440 537h258l-131 510zM778 223h-418l-55 -223h-336l404 1434h452l400 -1434h-389zM297 1837h621v-262h-621v262z" />
    <glyph glyph-name="amacron" unicode="&#x101;" horiz-adv-x="1062" 
d="M958 344q0 -61 66 -61q37 0 104 41l17 -258q-47 -45 -119 -71t-150 -26q-78 1 -125 27q-91 51 -102 127q-53 -74 -134 -114t-155 -40q-146 0 -236 83q-89 83 -87 239q0 179 165 280q147 92 373 101v78q0 54 -17 76t-66 22q-48 0 -64 -35t-16 -88l-336 29q12 184 131 281
q119 98 327 98t317 -99t107 -262v-428zM481 276q38 0 94 27v164q-74 -4 -110 -23q-66 -33 -68 -88q0 -80 84 -80zM229 1505h621v-262h-621v262z" />
    <glyph glyph-name="Abreve" unicode="&#x102;" horiz-adv-x="1193" 
d="M440 537h258l-131 510zM778 223h-418l-55 -223h-336l404 1434h452l400 -1434h-389zM588 1538q-166 0 -250 91t-84 245h235q0 -63 33 -86t66 -23q34 0 66 23t32 86h236q0 -154 -84 -245t-250 -91z" />
    <glyph glyph-name="abreve" unicode="&#x103;" horiz-adv-x="1062" 
d="M958 344q0 -61 66 -61q37 0 104 41l17 -258q-47 -45 -119 -71t-150 -26q-78 1 -125 27q-91 51 -102 127q-53 -74 -134 -114t-155 -40q-146 0 -236 83q-89 83 -87 239q0 179 165 280q147 92 373 101v78q0 54 -17 76t-66 22q-48 0 -64 -35t-16 -88l-336 29q12 184 131 281
q119 98 327 98t317 -99t107 -262v-428zM481 276q38 0 94 27v164q-74 -4 -110 -23q-66 -33 -68 -88q0 -80 84 -80zM537 1206q-166 0 -250 91t-84 245h235q0 -63 33 -86q65 -45 131 0q33 23 33 86h235q0 -154 -84 -245t-249 -91z" />
    <glyph glyph-name="Aogonek" unicode="&#x104;" horiz-adv-x="1193" 
d="M440 537h258l-131 510zM1311 -307q-100 -137 -293 -137q-194 0 -238.5 85t-44.5 144t26.5 120.5t74.5 94.5l-58 223h-418l-55 -223h-336l404 1434h452l400 -1434h-66q-55 -29 -86 -65.5t-31 -69.5q0 -49 52 -49q42 0 71 41z" />
    <glyph glyph-name="aogonek" unicode="&#x105;" horiz-adv-x="1062" 
d="M481 276q40 0 94 27v164q-122 -7 -150 -44.5t-28 -66.5q0 -80 84 -80zM360 -31q-146 0 -234.5 82t-88.5 249t155.5 265t382.5 107v78q0 53 -17 75.5t-66 22.5t-64.5 -35t-15.5 -88l-336 29q12 182 131 280.5t327 98.5t316 -98t108 -263v-428q0 -61 54 -61q48 0 116 41
l17 -258q-49 -45 -115 -68q-110 -60 -110 -133q0 -49 51 -49q42 0 71 41l146 -164q-100 -137 -293 -137q-194 0 -238.5 85t-44.5 144t27 125.5t80 103.5q-58 39 -70 109q-53 -74 -134 -114t-155 -40z" />
    <glyph glyph-name="Cacute" unicode="&#x106;" horiz-adv-x="1169" 
d="M639 1116q-113 0 -162 -89t-49 -257t24 -249t64 -126q68 -76 223 -77q154 -1 346 102l31 -326q-210 -122 -448 -125q-457 0 -583 415q-44 144 -44 347q0 383 156 558t444 175q365 0 467 -277q37 -97 37 -235l-365 -26q0 190 -141 190zM989 1868l-244 -324h-299l177 324
h366z" />
    <glyph glyph-name="cacute" unicode="&#x107;" horiz-adv-x="995" 
d="M514 -31q-94 0 -185 33q-282 102 -282 555q0 315 119 445t383 131q325 0 394 -256q22 -82 22 -185l-336 -28q1 81 -9 108q-20 57 -76 57q-55 0 -77 -50q-23 -58 -24 -183t11 -177t36 -83q40 -53 126 -53q184 0 320 79l25 -278q-159 -85 -298 -107q-55 -8 -149 -8z
M903 1536l-244 -324h-299l177 324h366z" />
    <glyph glyph-name="Ccircumflex" unicode="&#x108;" horiz-adv-x="1169" 
d="M639 1116q-113 0 -162 -89t-49 -257t24 -249t64 -126q68 -76 223 -77q154 -1 346 102l31 -326q-210 -122 -448 -125q-457 0 -583 415q-44 144 -44 347q0 383 156 558t444 175q365 0 467 -277q37 -97 37 -235l-365 -26q0 190 -141 190zM528 1544h-288l217 324h323
l217 -324h-309l-70 127z" />
    <glyph glyph-name="ccircumflex" unicode="&#x109;" horiz-adv-x="995" 
d="M514 -31q-94 0 -185 33q-282 102 -282 555q0 315 119 445t383 131q325 0 394 -256q22 -82 22 -185l-336 -28q1 81 -9 108q-20 57 -76 57q-55 0 -77 -50q-23 -58 -24 -183t11 -177t36 -83q40 -53 126 -53q184 0 320 79l25 -278q-159 -85 -298 -107q-55 -8 -149 -8z
M438 1212h-288l217 324h323l217 -324h-309l-70 127z" />
    <glyph glyph-name="Cdotaccent" unicode="&#x10a;" horiz-adv-x="1169" 
d="M639 1116q-113 0 -162 -89t-49 -257t24 -249t64 -126q68 -76 223 -77q154 -1 346 102l31 -326q-210 -122 -448 -125q-457 0 -583 415q-44 144 -44 347q0 383 156 558t444 175q365 0 467 -277q37 -97 37 -235l-365 -26q0 190 -141 190zM770 1851v-290h-301v290h301z" />
    <glyph glyph-name="cdotaccent" unicode="&#x10b;" horiz-adv-x="995" 
d="M514 -31q-94 0 -185 33q-282 102 -282 555q0 315 119 445t383 131q325 0 394 -256q22 -82 22 -185l-336 -28q1 81 -9 108q-20 57 -76 57q-55 0 -77 -50q-23 -58 -24 -183t11 -177t36 -83q40 -53 126 -53q184 0 320 79l25 -278q-159 -85 -298 -107q-55 -8 -149 -8z
M676 1520v-291h-301v291h301z" />
    <glyph glyph-name="Ccaron" unicode="&#x10c;" horiz-adv-x="1169" 
d="M639 1116q-113 0 -162 -89t-49 -257t24 -249t64 -126q68 -76 223 -77q154 -1 346 102l31 -326q-210 -122 -448 -125q-457 0 -583 415q-44 144 -44 347q0 383 156 558t444 175q365 0 467 -277q37 -97 37 -235l-365 -26q0 190 -141 190zM618 1741l70 127h309l-217 -324
h-323l-217 324h288z" />
    <glyph glyph-name="ccaron" unicode="&#x10d;" horiz-adv-x="995" 
d="M514 -31q-94 0 -185 33q-282 102 -282 555q0 315 119 445t383 131q325 0 394 -256q22 -82 22 -185l-336 -28q1 81 -9 108q-20 57 -76 57q-55 0 -77 -50q-23 -58 -24 -183t11 -177t36 -83q40 -53 126 -53q184 0 320 79l25 -278q-159 -85 -298 -107q-55 -8 -149 -8z
M528 1409l70 127h309l-217 -324h-323l-217 324h288z" />
    <glyph glyph-name="Dcaron" unicode="&#x10e;" horiz-adv-x="1325" 
d="M500 338h172q55 0 97 12t71 54q57 83 57 319q0 237 -57 310q-29 38 -71 50t-97 13h-172v-758zM690 1434q291 0 443 -168t151 -527q0 -567 -346 -697q-113 -42 -256 -42h-559v1434h567zM653 1741l70 127h309l-217 -324h-323l-218 324h289z" />
    <glyph glyph-name="dcaron" unicode="&#x10f;" horiz-adv-x="1353" 
d="M737 131q-148 -162 -310 -162t-271 150t-109 432q0 281 105.5 431.5t300.5 150.5q112 0 211 -46v408l380 41v-1192q0 -61 54 -61q48 0 116 41l17 -258q-47 -45 -118.5 -71t-150.5 -25t-144.5 39t-80.5 122zM557 317q47 0 107 37v457q-20 4 -45 11t-71.5 7t-76 -48
t-29.5 -190q0 -141 34 -207.5t81 -66.5zM1475 1434l-158 -486h-207l78 486h287z" />
    <glyph glyph-name="Dcroat" unicode="&#x110;" horiz-adv-x="1325" 
d="M520 864h205v-295h-205v-231h152q55 0 97 12t85 75.5t43 297.5t-52.5 303.5t-172.5 69.5h-152v-232zM18 864h125v570h547q291 0 442.5 -168t151.5 -527q0 -568 -229.5 -653.5t-372.5 -85.5h-539v569h-125v295z" />
    <glyph glyph-name="dcroat" unicode="&#x111;" horiz-adv-x="1189" 
d="M557 317q47 0 107 37v457q-20 4 -45 11t-71.5 7t-76 -48t-29.5 -190q0 -141 34 -207.5t81 -66.5zM453 1133q112 0 211 -46v142h-330v174h330v92l380 41v-133h170v-174h-170v-885q0 -61 54 -61q48 0 116 41l17 -258q-47 -45 -119 -71t-150 -25t-144 39t-81 122
q-148 -162 -310 -162t-271 150t-109 432q0 281 105.5 431.5t300.5 150.5z" />
    <glyph glyph-name="Emacron" unicode="&#x112;" horiz-adv-x="1073" 
d="M973 1434v-338h-473v-232h448v-307h-448v-219h501v-338h-878v1434h850zM240 1860h620v-263h-620v263z" />
    <glyph glyph-name="emacron" unicode="&#x113;" horiz-adv-x="1028" 
d="M629 262q129 0 301 100l24 -278q-115 -61 -203 -88t-208 -27q-496 0 -496 572q0 309 129 450t363 142q432 0 432 -490v-186h-525q6 -111 54 -153t129 -42zM616 657q0 97 -16 135t-72 38t-68 -45q-13 -44 -14 -128h170zM207 1505h620v-262h-620v262z" />
    <glyph glyph-name="Ebreve" unicode="&#x114;" horiz-adv-x="1073" 
d="M973 1434v-338h-473v-232h448v-307h-448v-219h501v-338h-878v1434h850zM549 1561q-166 0 -250 91t-84 244h236q1 -63 33 -86q64 -46 130 0q33 23 33 86h236q0 -154 -84 -244t-250 -91z" />
    <glyph glyph-name="ebreve" unicode="&#x115;" horiz-adv-x="1028" 
d="M629 262q129 0 301 100l24 -278q-115 -61 -203 -88t-208 -27q-496 0 -496 572q0 309 129 450t363 142q432 0 432 -490v-186h-525q6 -111 54 -153t129 -42zM616 657q0 97 -16 135t-72 38t-68 -45q-13 -44 -14 -128h170zM516 1206q-166 0 -250 91t-84 245h236q0 -63 33 -86
q64 -45 131 0q33 23 32 86h236q0 -154 -84 -245t-250 -91z" />
    <glyph glyph-name="Edotaccent" unicode="&#x116;" horiz-adv-x="1073" 
d="M973 1434v-338h-473v-232h448v-307h-448v-219h501v-338h-878v1434h850zM700 1874v-291h-301v291h301z" />
    <glyph glyph-name="edotaccent" unicode="&#x117;" horiz-adv-x="1028" 
d="M629 262q129 0 301 100l24 -278q-115 -61 -203 -88t-208 -27q-496 0 -496 572q0 309 129 450t363 142q432 0 432 -490v-186h-525q6 -111 54 -153t129 -42zM616 657q0 97 -16 135t-72 38t-68 -45q-13 -44 -14 -128h170zM668 1520v-291h-301v291h301z" />
    <glyph glyph-name="Eogonek" unicode="&#x118;" horiz-adv-x="1077" 
d="M1006 -307q-100 -137 -293 -137q-194 0 -238.5 85t-44.5 144t26.5 120.5t73.5 94.5h-407v1434h850v-338h-473v-232h448v-307h-448v-219h501v-338h-147q-55 -29 -86 -65.5t-31 -69.5q0 -49 51 -49q43 0 72 41z" />
    <glyph glyph-name="eogonek" unicode="&#x119;" horiz-adv-x="1028" 
d="M616 657q0 96 -16 134t-71.5 38t-69 -44t-13.5 -128h170zM629 262q129 0 301 100l24 -278q-98 -54 -190 -84q-55 -29 -86 -65.5t-31 -69.5q0 -49 51 -49q43 0 72 41l145 -164q-100 -137 -293 -137t-237.5 85t-44.5 140q0 127 76 199q-168 31 -268.5 164.5t-100.5 419.5
t129 427.5t363 141.5q432 0 432 -490v-186h-525q6 -111 54.5 -153t128.5 -42z" />
    <glyph glyph-name="Ecaron" unicode="&#x11a;" horiz-adv-x="1073" 
d="M973 1434v-338h-473v-232h448v-307h-448v-219h501v-338h-878v1434h850zM549 1741l69 127h310l-217 -324h-324l-217 324h289z" />
    <glyph glyph-name="ecaron" unicode="&#x11b;" horiz-adv-x="1028" 
d="M629 262q129 0 301 100l24 -278q-115 -61 -203 -88t-208 -27q-496 0 -496 572q0 309 129 450t363 142q432 0 432 -490v-186h-525q6 -111 54 -153t129 -42zM616 657q0 97 -16 135t-72 38t-68 -45q-13 -44 -14 -128h170zM516 1409l70 127h309l-217 -324h-324l-217 324h289z
" />
    <glyph glyph-name="Gcircumflex" unicode="&#x11c;" horiz-adv-x="1323" 
d="M862 504h-190v305h569v-809h-340v84q-105 -115 -297 -115q-379 0 -513 386q-50 143 -50 357t49 356t136 230q164 166 468 166q406 0 499 -294q30 -95 30 -218l-363 -26q-4 190 -176 190q-235 0 -235 -385q0 -246 58 -335q30 -46 73 -62t119 -16t163 65v121zM569 1567
h-288l217 323h323l217 -323h-309l-70 127z" />
    <glyph glyph-name="gcircumflex" unicode="&#x11d;" horiz-adv-x="1011" 
d="M502 543q86 0 86 168q0 100 -24 134t-64 34q-92 0 -91 -168t93 -168zM504 1133q71 0 172 -31h368v-303l-122 10q12 -66 12 -129t-32 -142q-32 -80 -88 -136q-120 -121 -312 -119q-57 0 -99 8q-18 -13 -32 -25t-15 -35q0 -27 48 -35t122 -16q74 -6 158 -17t158 -42
t122 -87t48 -156q0 -197 -156 -304q-156 -106 -401 -104q-374 0 -470 182q-28 53 -28 124t45 125t107 76q-41 33 -63 71t-21 110q0 143 172 243q-133 115 -132 308t121 309q119 115 318 115zM461 -268q67 0 109 19t42 52t-26 50q-47 28 -127 36t-125 15q-18 -10 -32 -34
t-13 -50q0 -48 53 -68t119 -20zM430 1212h-289l217 324h324l217 -324h-309l-70 127z" />
    <glyph glyph-name="Gbreve" unicode="&#x11e;" horiz-adv-x="1323" 
d="M862 504h-190v305h569v-809h-340v84q-105 -115 -297 -115q-379 0 -513 386q-50 143 -50 357t49 356t136 230q164 166 468 166q406 0 499 -294q30 -95 30 -218l-363 -26q-4 190 -176 190q-235 0 -235 -385q0 -246 58 -335q30 -46 73 -62t119 -16t163 65v121zM659 1561
q-165 0 -249 91t-84 244h235q0 -63 33 -86q64 -45 131 0q33 23 33 86h235q0 -154 -84 -244t-250 -91z" />
    <glyph glyph-name="gbreve" unicode="&#x11f;" horiz-adv-x="1011" 
d="M502 543q86 0 86 168q0 100 -24 134t-64 34q-92 0 -91 -168t93 -168zM504 1133q71 0 172 -31h368v-303l-122 10q12 -66 12 -129t-32 -142q-32 -80 -88 -136q-120 -121 -312 -119q-57 0 -99 8q-18 -13 -32 -25t-15 -35q0 -27 48 -35t122 -16q74 -6 158 -17t158 -42
t122 -87t48 -156q0 -197 -156 -304q-156 -106 -401 -104q-374 0 -470 182q-28 53 -28 124t45 125t107 76q-41 33 -63 71t-21 110q0 143 172 243q-133 115 -132 308t121 309q119 115 318 115zM461 -268q67 0 109 19t42 52t-26 50q-47 28 -127 36t-125 15q-18 -10 -32 -34
t-13 -50q0 -48 53 -68t119 -20zM520 1206q-166 0 -250 91t-84 245h236q0 -63 33 -86q64 -45 131 0q33 23 32 86h236q0 -154 -84 -245t-250 -91z" />
    <glyph glyph-name="Gdotaccent" unicode="&#x120;" horiz-adv-x="1323" 
d="M862 504h-190v305h569v-809h-340v84q-105 -115 -297 -115q-379 0 -513 386q-50 143 -50 357t49 356t136 230q164 166 468 166q406 0 499 -294q30 -95 30 -218l-363 -26q-4 190 -176 190q-235 0 -235 -385q0 -246 58 -335q30 -46 73 -62t119 -16t163 65v121zM813 1874
v-291h-301v291h301z" />
    <glyph glyph-name="gdotaccent" unicode="&#x121;" horiz-adv-x="1011" 
d="M502 543q86 0 86 168q0 100 -24 134t-64 34q-92 0 -91 -168t93 -168zM504 1133q71 0 172 -31h368v-303l-122 10q12 -66 12 -129t-32 -142q-32 -80 -88 -136q-120 -121 -312 -119q-57 0 -99 8q-18 -13 -32 -25t-15 -35q0 -27 48 -35t122 -16q74 -6 158 -17t158 -42
t122 -87t48 -156q0 -197 -156 -304q-156 -106 -401 -104q-374 0 -470 182q-28 53 -28 124t45 125t107 76q-41 33 -63 71t-21 110q0 143 172 243q-133 115 -132 308t121 309q119 115 318 115zM461 -268q67 0 109 19t42 52t-26 50q-47 28 -127 36t-125 15q-18 -10 -32 -34
t-13 -50q0 -48 53 -68t119 -20zM672 1520v-291h-301v291h301z" />
    <glyph glyph-name="Gcommaaccent" unicode="&#x122;" horiz-adv-x="1323" 
d="M862 504h-190v305h569v-809h-340v84q-105 -115 -297 -115q-379 0 -513 386q-50 143 -50 357t49 356t136 230q164 166 468 166q406 0 499 -294q30 -95 30 -218l-363 -26q-4 190 -176 190q-235 0 -235 -385q0 -246 58 -335q30 -46 73 -62t119 -16t163 65v121zM901 -80
l-244 -323h-299l177 323h366z" />
    <glyph glyph-name="gcommaaccent" unicode="&#x123;" horiz-adv-x="1011" 
d="M502 543q86 0 86 168q0 100 -24 134t-64 34q-92 0 -91 -168t93 -168zM504 1133q71 0 172 -31h368v-303l-122 10q12 -66 12 -129t-32 -142q-32 -80 -88 -136q-120 -121 -312 -119q-57 0 -99 8q-18 -13 -32 -25t-15 -35q0 -27 48 -35t122 -16q74 -6 158 -17t158 -42
t122 -87t48 -156q0 -197 -156 -304q-156 -106 -401 -104q-374 0 -470 182q-28 53 -28 124t45 125t107 76q-41 33 -63 71t-21 110q0 143 172 243q-133 115 -132 308t121 309q119 115 318 115zM461 -268q67 0 109 19t42 52t-26 50q-47 28 -127 36t-125 15q-18 -10 -32 -34
t-13 -50q0 -48 53 -68t119 -20zM320 1213l243 323h299l-176 -323h-366z" />
    <glyph glyph-name="Hcircumflex" unicode="&#x124;" horiz-adv-x="1388" 
d="M500 1434v-547h389v547h377v-1434h-377v526h-389v-526h-377v1434h377zM604 1544h-289l217 324h324l217 -324h-309l-70 127z" />
    <glyph glyph-name="hcircumflex" unicode="&#x125;" horiz-adv-x="1175" 
d="M766 1133q321 0 321 -349v-784h-382v664q0 51 -32 70q-62 37 -181 7v-741h-383v1495l383 41v-489q122 86 274 86zM217 1624h-289l217 324h324l217 -324h-309l-70 127z" />
    <glyph glyph-name="Hbar" unicode="&#x126;" horiz-adv-x="1429" 
d="M909 891v174h-389v-174h389zM520 1434v-156h389v156h377v-156h144v-213h-144v-1065h-377v522h-389v-522h-377v1065h-143v213h143v156h377z" />
    <glyph glyph-name="hbar" unicode="&#x127;" horiz-adv-x="1175" 
d="M592 754q-35 0 -100 -13v-741h-383v1229h-168v174h168v92l383 41v-133h329v-174h-329v-182q121 86 274 86q321 0 321 -349v-784h-382v664q0 90 -113 90z" />
    <glyph glyph-name="Itilde" unicode="&#x128;" horiz-adv-x="622" 
d="M500 1434v-1434h-377v1434h377zM158 1851q41 0 91 -12t90 -26q39 -13 63 -13t44 11t29 61l209 -82q-37 -131 -97 -188t-151 -58q-48 0 -112 28t-94 27q-30 0 -48 -10t-28 -49l-209 80q23 111 59 153q37 42 75 60t79 18z" />
    <glyph glyph-name="itilde" unicode="&#x129;" horiz-adv-x="600" 
d="M492 1102v-1102h-383v1102h383zM214 1268q-26 0 -44 -10t-29 -50l-209 80q47 229 224 232q44 0 128 -26q82 -26 106 -26t44 12t29 60l209 -82q-38 -131 -98 -188t-150 -58q-41 0 -112 28q-72 28 -98 28z" />
    <glyph glyph-name="Imacron" unicode="&#x12a;" horiz-adv-x="622" 
d="M500 1434v-1434h-377v1434h377zM4 1837h621v-262h-621v262z" />
    <glyph glyph-name="imacron" unicode="&#x12b;" horiz-adv-x="600" 
d="M492 1102v-1102h-383v1102h383zM-8 1505h620v-262h-620v262z" />
    <glyph glyph-name="Ibreve" unicode="&#x12c;" horiz-adv-x="622" 
d="M500 1434v-1434h-377v1434h377zM313 1538q-166 0 -250 91t-83 245h235q0 -63 33 -86q34 -23 66 -23t65 23t33 86h235q0 -154 -84 -245t-250 -91z" />
    <glyph glyph-name="ibreve" unicode="&#x12d;" horiz-adv-x="600" 
d="M492 1102v-1102h-383v1102h383zM303 1206q-166 0 -250 91t-84 245h236q0 -63 33 -86q64 -45 131 0q33 23 32 86h236q0 -154 -84 -245t-250 -91z" />
    <glyph glyph-name="Iogonek" unicode="&#x12e;" horiz-adv-x="614" 
d="M25 -215q0 59 25.5 120.5t72.5 94.5v1434h377v-1434q-90 -16 -129 -56t-39 -79q0 -49 51 -49q42 0 72 41l145 -164q-100 -137 -293 -137t-237.5 85t-44.5 144z" />
    <glyph glyph-name="iogonek" unicode="&#x12f;" horiz-adv-x="600" 
d="M496 1536v-311h-383v311h383zM12 -215q0 59 27 120.5t74 94.5v1102h383v-1102q-90 -18 -133.5 -55t-43.5 -80q0 -49 52 -49q42 0 71 41l146 -164q-100 -137 -293 -137q-194 0 -238.5 85t-44.5 144z" />
    <glyph glyph-name="Idotaccent" unicode="&#x130;" horiz-adv-x="622" 
d="M500 1434v-1434h-377v1434h377zM465 1851v-290h-301v290h301z" />
    <glyph glyph-name="dotlessi" unicode="&#x131;" horiz-adv-x="600" 
d="M492 1102v-1102h-383v1102h383z" />
    <glyph glyph-name="Jcircumflex" unicode="&#x134;" horiz-adv-x="659" 
d="M180 1434h377v-1076q0 -186 -98 -287t-243 -101t-247 48l43 318q100 -38 147 -2q22 16 21 69v1031zM287 1544h-289l217 324h324l217 -324h-310l-69 127z" />
    <glyph glyph-name="jcircumflex" unicode="&#x135;" horiz-adv-x="604" 
d="M209 1212h-289l217 324h324l217 -324h-309l-70 127zM113 -10v1112h383v-1196q0 -175 -99 -257.5t-239 -82.5t-267 53l31 299q69 -22 105 -22q86 0 86 94z" />
    <glyph glyph-name="Kcommaaccent" unicode="&#x136;" horiz-adv-x="1273" 
d="M500 1434v-568l387 568h399l-403 -551l422 -883h-439l-235 535l-131 -183v-352h-377v1434h377zM915 -82l-247 -324h-299l176 324h370z" />
    <glyph glyph-name="kcommaaccent" unicode="&#x137;" horiz-adv-x="1091" 
d="M496 0h-383v1495l383 41v-780l247 346h387l-286 -447l327 -655h-436l-194 420l-45 -64v-356zM829 -82l-247 -324h-299l176 324h370z" />
    <glyph glyph-name="Lacute" unicode="&#x139;" horiz-adv-x="954" 
d="M500 1434v-1117h434v-317h-811v1434h377zM702 1868l-243 -324h-299l176 324h366z" />
    <glyph glyph-name="lacute" unicode="&#x13a;" horiz-adv-x="620" 
d="M565 301q43 0 84 18v-294q-105 -46 -153 -51t-82 -5q-160 0 -236 82t-76 268v1176l383 41v-1153q0 -82 80 -82zM684 1913l-244 -324h-299l176 324h367z" />
    <glyph glyph-name="Lcommaaccent" unicode="&#x13b;" horiz-adv-x="954" 
d="M500 1434v-1117h434v-317h-811v1434h377zM721 -82l-248 -324h-299l176 324h371z" />
    <glyph glyph-name="lcommaaccent" unicode="&#x13c;" horiz-adv-x="620" 
d="M565 301q44 0 84 18v-294q-113 -49 -156.5 -52.5t-78.5 -3.5q-160 0 -236 82t-76 268v1176l383 41v-1153q0 -82 80 -82zM612 -82l-247 -324h-299l176 324h370z" />
    <glyph glyph-name="Lcaron" unicode="&#x13d;" horiz-adv-x="954" 
d="M500 1434v-1117h434v-317h-811v1434h377zM317 1763l70 127h309l-217 -323h-323l-217 323h288z" />
    <glyph glyph-name="lcaron" unicode="&#x13e;" horiz-adv-x="788" 
d="M565 301q44 0 84 18v-294q-113 -49 -156.5 -52.5t-78.5 -3.5q-160 0 -236 82t-76 268v1176l383 41v-1153q0 -82 80 -82zM909 1434l-157 -486h-207l78 486h286z" />
    <glyph glyph-name="Lslash" unicode="&#x141;" horiz-adv-x="954" 
d="M500 1434v-476l307 132v-306l-307 -131v-336h434v-317h-811v494l-123 -52v306l123 51v635h377z" />
    <glyph glyph-name="lslash" unicode="&#x142;" horiz-adv-x="667" 
d="M565 301q44 0 84 18v-294q-113 -49 -156.5 -52.5t-78.5 -3.5q-160 0 -236 82t-76 268v222l-127 -70v270l127 70v684l383 41v-510l133 76v-271l-133 -75v-373q0 -82 80 -82z" />
    <glyph glyph-name="Nacute" unicode="&#x143;" horiz-adv-x="1384" 
d="M932 1434h371v-1434h-390l-421 762v-762h-369v1434h391l418 -791v791zM1059 1868l-244 -324h-299l176 324h367z" />
    <glyph glyph-name="nacute" unicode="&#x144;" horiz-adv-x="1177" 
d="M492 0h-383v1102h301v-123q148 153 376 153q134 0 219 -81q85 -82 85 -267v-784h-383v664q0 51 -32 70q-59 35 -183 7v-741zM987 1536l-244 -324h-299l177 324h366z" />
    <glyph glyph-name="Ncommaaccent" unicode="&#x145;" horiz-adv-x="1384" 
d="M932 1434h371v-1434h-390l-421 762v-762h-369v1434h391l418 -791v791zM934 -82l-248 -324h-299l176 324h371z" />
    <glyph glyph-name="ncommaaccent" unicode="&#x146;" horiz-adv-x="1177" 
d="M410 979q148 154 376 154q134 0 219 -82t85 -267v-784h-383v664q0 90 -113 90q-30 0 -102 -13v-741h-383v1102h301v-123zM825 -82l-247 -324h-299l176 324h370z" />
    <glyph glyph-name="Ncaron" unicode="&#x147;" horiz-adv-x="1384" 
d="M932 1434h371v-1434h-390l-421 762v-762h-369v1434h391l418 -791v791zM713 1741l69 127h310l-218 -324h-323l-217 324h289z" />
    <glyph glyph-name="ncaron" unicode="&#x148;" horiz-adv-x="1177" 
d="M492 0h-383v1102h301v-123q148 153 376 153q134 0 219 -81q85 -82 85 -267v-784h-383v664q0 51 -32 70q-59 35 -183 7v-741zM598 1409l70 127h309l-217 -324h-324l-217 324h289z" />
    <glyph glyph-name="Eng" unicode="&#x14a;" horiz-adv-x="1425" 
d="M842 -61q36 0 60 10t28 51v8l-438 754v-762h-369v1434h371l438 -791v791h371v-1454q0 -186 -98.5 -288t-244.5 -102t-245 50l43 317q48 -18 84 -18z" />
    <glyph glyph-name="eng" unicode="&#x14b;" horiz-adv-x="1177" 
d="M410 979q148 154 376 154q134 0 219 -82t85 -267v-878q0 -175 -99 -257.5t-239 -82.5t-267 53l31 299q69 -22 105 -22q86 0 86 94v684q0 80 -113 80q-30 0 -102 -13v-741h-383v1102h301v-123z" />
    <glyph glyph-name="Omacron" unicode="&#x14c;" horiz-adv-x="1275" 
d="M637 1116q-104 0 -161 -85q-58 -85 -58 -314q0 -329 134 -383q89 -36 167 0q114 49 116 380q1 331 -116 386q-37 16 -82 16zM638 1464q124 0 232 -39t190 -128q175 -192 175 -581t-175 -581q-153 -166 -423 -166q-419 0 -549 397q-47 142 -47 349t47 350t128 232
q82 89 190 128t232 39zM326 1860h620v-263h-620v263z" />
    <glyph glyph-name="omacron" unicode="&#x14d;" horiz-adv-x="1128" 
d="M692 550q0 162 -32 226t-96 64t-96 -65t-32 -225t32 -224t96 -64t96 64t32 224zM47 550q0 302 135 442t383 141q248 -1 382 -141t134 -442t-139 -441t-381 -139t-378 138q-136 140 -136 442zM254 1505h620v-262h-620v262z" />
    <glyph glyph-name="Obreve" unicode="&#x14e;" horiz-adv-x="1275" 
d="M637 1116q-104 0 -161 -85q-58 -85 -58 -314q0 -329 134 -383q89 -36 167 0q114 49 116 380q1 331 -116 386q-37 16 -82 16zM638 1464q124 0 232 -39t190 -128q175 -192 175 -581t-175 -581q-153 -166 -423 -166q-419 0 -549 397q-47 142 -47 349t47 350t128 232
q82 89 190 128t232 39zM635 1561q-166 0 -250 91t-84 244h236q1 -63 33 -86q64 -46 130 0q33 23 33 86h236q0 -154 -84 -244t-250 -91z" />
    <glyph glyph-name="obreve" unicode="&#x14f;" horiz-adv-x="1128" 
d="M692 550q0 162 -32 226t-96 64t-96 -65t-32 -225t32 -224t96 -64t96 64t32 224zM47 550q0 302 135 442t383 141q248 -1 382 -141t134 -442t-139 -441t-381 -139t-378 138q-136 140 -136 442zM563 1206q-166 0 -250 91t-84 245h236q0 -63 33 -86q64 -45 131 0q33 23 33 86
h235q0 -154 -84 -245t-250 -91z" />
    <glyph glyph-name="Ohungarumlaut" unicode="&#x150;" horiz-adv-x="1275" 
d="M637 1116q-104 0 -161 -85q-58 -85 -58 -314q0 -329 134 -383q89 -36 167 0q114 49 116 380q1 331 -116 386q-37 16 -82 16zM638 1464q124 0 232 -39t190 -128q175 -192 175 -581t-175 -581q-153 -166 -423 -166q-419 0 -549 397q-47 142 -47 349t47 350t128 232
q82 89 190 128t232 39zM1186 1890l-264 -323h-252l155 323h361zM729 1890l-162 -323h-227l53 323h336z" />
    <glyph glyph-name="ohungarumlaut" unicode="&#x151;" horiz-adv-x="1128" 
d="M692 550q0 162 -32 226t-96 64t-96 -65t-32 -225t32 -224t96 -64t96 64t32 224zM47 550q0 302 135 442t383 141q248 -1 382 -141t134 -442t-139 -441t-381 -139t-378 138q-136 140 -136 442zM1110 1536l-264 -324h-252l156 324h360zM653 1536l-161 -324h-228l53 324h336z
" />
    <glyph glyph-name="OE" unicode="&#x152;" horiz-adv-x="1841" 
d="M637 1116q-45 0 -85 -16.5t-69.5 -60.5t-47 -121.5t-17.5 -200.5t17.5 -200t47 -122t69.5 -61.5t85 -16.5t82 16.5t62.5 61.5t40 122t14.5 200t-14.5 200.5t-40 121.5t-62.5 60.5t-82 16.5zM628 -31q-114 0 -222.5 39t-189.5 127t-128 230.5t-47 441t163.5 478
t432.5 179.5q104 0 184 -34.5t117 -94.5v99h809v-338h-473v-232h448v-307h-448v-219h502v-338h-838v98q-37 -59 -116.5 -94t-193.5 -35z" />
    <glyph glyph-name="oe" unicode="&#x153;" horiz-adv-x="1660" 
d="M1249 657q0 96 -16 134t-71.5 38t-69 -44t-13.5 -128h170zM564 840q-64 0 -96 -64.5t-32 -225.5t32 -224.5t96 -63.5t96 63.5t32 224.5t-32 225.5t-96 64.5zM550 -31q-232 0 -367.5 139.5t-135.5 441.5t135.5 441t367.5 139t327 -114q86 117 294 117q433 0 433 -490v-186
h-525q6 -111 54.5 -153t128.5 -42q129 0 301 100l24 -278q-115 -61 -203 -88t-219 -27q-197 0 -291 119q-92 -119 -324 -119z" />
    <glyph glyph-name="Racute" unicode="&#x154;" horiz-adv-x="1208" 
d="M584 811q84 0 128 41t44 119q0 77 -39 111t-127 34h-90v-297q50 -8 84 -8zM500 0h-377v1434h467q261 0 396 -88q163 -106 163 -357q0 -182 -54 -284t-147 -154l275 -551h-416l-229 479q-42 0 -78 6v-485zM934 1868l-244 -324h-299l176 324h367z" />
    <glyph glyph-name="racute" unicode="&#x155;" horiz-adv-x="923" 
d="M564 768q-36 0 -68 -49v-719h-383v1102h315v-135q74 92 137 129t151 37t135 -39q86 -73 93 -237q4 -75 4 -144l-332 -21q-2 28 -9 52t-43 24zM868 1536l-243 -324h-299l176 324h366z" />
    <glyph glyph-name="Rcommaaccent" unicode="&#x156;" horiz-adv-x="1208" 
d="M584 811q84 0 128 41t44 119t-39 111.5t-127 33.5h-90v-297q50 -8 84 -8zM500 0h-377v1434h467q262 0 410.5 -98t148.5 -347q0 -327 -201 -438l275 -551h-416l-229 479q-42 0 -78 6v-485zM909 -82l-247 -324h-300l177 324h370z" />
    <glyph glyph-name="rcommaaccent" unicode="&#x157;" horiz-adv-x="923" 
d="M564 768q-36 0 -68 -49v-719h-383v1102h315v-135q74 92 137.5 129t151.5 37q153 0 192 -112t39 -308l-332 -21q-2 29 -9 52.5t-43 23.5zM489 -82l-247 -324h-299l176 324h370z" />
    <glyph glyph-name="Rcaron" unicode="&#x158;" horiz-adv-x="1208" 
d="M584 811q84 0 128 41t44 119q0 77 -39 111t-127 34h-90v-297q50 -8 84 -8zM500 0h-377v1434h467q261 0 396 -88q163 -106 163 -357q0 -182 -54 -284t-147 -154l275 -551h-416l-229 479q-42 0 -78 6v-485zM631 1741l69 127h310l-217 -324h-324l-217 324h289z" />
    <glyph glyph-name="rcaron" unicode="&#x159;" horiz-adv-x="923" 
d="M564 768q-36 0 -68 -49v-719h-383v1102h315v-135q74 92 137 129t151 37t135 -39q86 -73 93 -237q4 -75 4 -144l-332 -21q-2 28 -9 52t-43 24zM506 1409l69 127h310l-217 -324h-324l-217 324h289z" />
    <glyph glyph-name="Sacute" unicode="&#x15a;" horiz-adv-x="1116" 
d="M555 1133q-117 0 -117 -101q0 -51 52 -93t191 -104q138 -63 206 -114q157 -118 157 -312t-128 -317t-368 -123t-421 125q-51 37 -94 76l155 303q160 -156 353 -156q118 0 116 68q0 43 -45 74q-46 31 -112 61l-145 67q-79 36 -145 91q-156 129 -157 335q0 206 139 328
q139 123 359 123q364 0 468 -244q38 -89 42 -221l-365 -28q-8 162 -141 162zM893 1868l-244 -324h-299l176 324h367z" />
    <glyph glyph-name="sacute" unicode="&#x15b;" horiz-adv-x="913" 
d="M436 262q63 0 64 47q0 23 -32 42t-129 67t-154 97q-121 107 -120 258q1 150 108 255t304 105t294 -99t110 -250l-299 -59q-4 59 -22 91t-78 32q-58 0 -58 -57q0 -35 42 -65t142 -76t150 -86q118 -96 117 -244q-1 -149 -105 -250t-309 -101t-355 92q-43 27 -79 54l100 272
q180 -125 309 -125zM842 1536l-244 -324h-299l176 324h367z" />
    <glyph glyph-name="Scircumflex" unicode="&#x15c;" horiz-adv-x="1116" 
d="M555 1133q-117 0 -117 -101q0 -51 52 -93t191 -104q138 -63 206 -114q157 -118 157 -312t-128 -317t-368 -123t-421 125q-51 37 -94 76l155 303q160 -156 353 -156q118 0 116 68q0 43 -45 74q-46 31 -112 61l-145 67q-79 36 -145 91q-156 129 -157 335q0 206 139 328
q139 123 359 123q364 0 468 -244q38 -89 42 -221l-365 -28q-8 162 -141 162zM442 1544h-288l217 324h323l217 -324h-309l-70 127z" />
    <glyph glyph-name="scircumflex" unicode="&#x15d;" horiz-adv-x="913" 
d="M436 262q63 0 64 47q0 23 -32 42t-129 67t-154 97q-121 107 -120 258q1 150 108 255t304 105t294 -99t110 -250l-299 -59q-4 59 -22 91t-78 32q-58 0 -58 -57q0 -35 42 -65t142 -76t150 -86q118 -96 117 -244q-1 -149 -105 -250t-309 -101t-355 92q-43 27 -79 54l100 272
q180 -125 309 -125zM385 1212h-289l217 324h324l217 -324h-309l-70 127z" />
    <glyph glyph-name="Scedilla" unicode="&#x15e;" horiz-adv-x="1116" 
d="M555 1133q-117 0 -117 -101q0 -51 45 -87t113 -69.5t258 -119.5t190 -336q0 -154 -71.5 -264.5t-218.5 -155.5q57 -61 57 -173q0 -113 -83.5 -187t-197.5 -74t-204 41t-131 112l145 154q44 -57 102 -57q66 0 66 67q0 41 -31 88q-152 10 -259 68.5t-185 130.5l155 303
q160 -156 353 -156q63 0 89.5 16.5t26.5 55.5t-45 69.5t-111.5 61.5l-145.5 67t-190.5 128t-111.5 298q0 205 138 328t431 123t364 -167t75 -298l-365 -28q-8 162 -141 162z" />
    <glyph glyph-name="Scedilla" unicode="&#xf6c1;" horiz-adv-x="1116" 
d="M555 1133q-117 0 -117 -101q0 -51 45 -87t113 -69.5t258 -119.5t190 -336q0 -154 -71.5 -264.5t-218.5 -155.5q57 -61 57 -173q0 -113 -83.5 -187t-197.5 -74t-204 41t-131 112l145 154q44 -57 102 -57q66 0 66 67q0 41 -31 88q-152 10 -259 68.5t-185 130.5l155 303
q160 -156 353 -156q63 0 89.5 16.5t26.5 55.5t-45 69.5t-111.5 61.5l-145.5 67t-190.5 128t-111.5 298q0 205 138 328t431 123t364 -167t75 -298l-365 -28q-8 162 -141 162z" />
    <glyph glyph-name="scedilla" unicode="&#x15f;" horiz-adv-x="913" 
d="M403.5 262q96.5 0 96.5 47q0 23 -32 42.5t-129.5 66.5t-185 125.5t-87.5 228.5q0 151 107 256t304 105t292.5 -97.5t111.5 -251.5l-299 -59q-4 59 -23 91t-77 32t-58 -57q0 -35 34 -58.5t83 -48.5t191 -90.5t142 -267.5q0 -111 -56 -200t-179 -130q55 -63 55 -172
q0 -110 -83.5 -184t-197.5 -74t-204 41t-131 112l145 154q44 -57 103 -57q66 0 65 67q0 44 -33 92q-175 25 -331 140l100 272q180 -125 276.5 -125z" />
    <glyph glyph-name="scedilla" unicode="&#xf6c2;" horiz-adv-x="913" 
d="M403.5 262q96.5 0 96.5 47q0 23 -32 42.5t-129.5 66.5t-185 125.5t-87.5 228.5q0 151 107 256t304 105t292.5 -97.5t111.5 -251.5l-299 -59q-4 59 -23 91t-77 32t-58 -57q0 -35 34 -58.5t83 -48.5t191 -90.5t142 -267.5q0 -111 -56 -200t-179 -130q55 -63 55 -172
q0 -110 -83.5 -184t-197.5 -74t-204 41t-131 112l145 154q44 -57 103 -57q66 0 65 67q0 44 -33 92q-175 25 -331 140l100 272q180 -125 276.5 -125z" />
    <glyph glyph-name="Scaron" unicode="&#x160;" horiz-adv-x="1116" 
d="M555 1133q-117 0 -117 -101q0 -51 52 -93t191 -104q138 -63 206 -114q157 -118 157 -312t-128 -317t-368 -123t-421 125q-51 37 -94 76l155 303q160 -156 353 -156q118 0 116 68q0 43 -45 74q-46 31 -112 61l-145 67q-79 36 -145 91q-156 129 -157 335q0 206 139 328
q139 123 359 123q364 0 468 -244q38 -89 42 -221l-365 -28q-8 162 -141 162zM532 1741l70 127h309l-217 -324h-323l-217 324h288z" />
    <glyph glyph-name="scaron" unicode="&#x161;" horiz-adv-x="913" 
d="M436 262q63 0 64 47q0 23 -32 42t-129 67t-154 97q-121 107 -120 258q1 150 108 255t304 105t294 -99t110 -250l-299 -59q-4 59 -22 91t-78 32q-58 0 -58 -57q0 -35 42 -65t142 -76t150 -86q118 -96 117 -244q-1 -149 -105 -250t-309 -101t-355 92q-43 27 -79 54l100 272
q180 -125 309 -125zM471 1409l70 127h309l-217 -324h-324l-217 324h289z" />
    <glyph glyph-name="Tcommaaccent" unicode="&#x162;" 
d="M1075 1434v-355h-344v-1079h-377v1079h-344v355h1065zM733 -82l-248 -324h-299l176 324h371z" />
    <glyph glyph-name="Tcommaaccent" unicode="&#x21a;" 
d="M1075 1434v-355h-344v-1079h-377v1079h-344v355h1065zM733 -82l-248 -324h-299l176 324h371z" />
    <glyph glyph-name="tcommaaccent" unicode="&#x163;" horiz-adv-x="782" 
d="M811 78q-184 -111 -331 -111q-161 0 -250 80.5t-89 224.5v537h-147v293h160v174l370 98v-272h260l-41 -293h-219v-403q0 -89 86 -89q63 0 140 35zM657 -82l-247 -324h-299l176 324h370z" />
    <glyph glyph-name="tcommaaccent" unicode="&#x21b;" horiz-adv-x="782" 
d="M811 78q-184 -111 -331 -111q-161 0 -250 80.5t-89 224.5v537h-147v293h160v174l370 98v-272h260l-41 -293h-219v-403q0 -89 86 -89q63 0 140 35zM657 -82l-247 -324h-299l176 324h370z" />
    <glyph glyph-name="Tcaron" unicode="&#x164;" 
d="M1077 1434v-355h-344v-1079h-377v1079h-344v355h1065zM543 1741l69 127h310l-217 -324h-324l-217 324h289z" />
    <glyph glyph-name="tcaron" unicode="&#x165;" horiz-adv-x="782" 
d="M811 78q-184 -111 -331 -111q-161 0 -250 80.5t-89 224.5v537h-147v293h160v174l370 98v-272h260l-41 -293h-219v-403q0 -89 86 -89q63 0 140 35zM977 1569l-158 -375h-215l58 375h315z" />
    <glyph glyph-name="Tbar" unicode="&#x166;" 
d="M72 772h282v307h-344v355h1065v-355h-344v-307h285v-293h-285v-479h-377v479h-282v293z" />
    <glyph glyph-name="tbar" unicode="&#x167;" horiz-adv-x="823" 
d="M141 274v189h-149v233h149v113h-147v293h160v174l370 98v-272h260l-41 -293h-219v-113h211v-233h-211v-57q0 -89 86 -89q63 0 140 35l61 -274q-181 -109 -336 -109t-244.5 80.5t-89.5 224.5z" />
    <glyph glyph-name="Utilde" unicode="&#x168;" horiz-adv-x="1345" 
d="M856 522v912h377v-922q0 -388 -305 -503q-106 -40 -254 -40q-282 0 -422 147q-141 147 -139 396v922h376v-912q0 -203 185 -205q182 0 182 205zM762 1800q24 0 43 11q20 11 29 61l208 -82q-37 -131 -97 -188t-150 -58q-49 0 -113 28t-94 27q-29 0 -47 -10t-29 -49
l-209 80q47 231 223 231q56 1 134 -25t102 -26z" />
    <glyph glyph-name="utilde" unicode="&#x169;" horiz-adv-x="1105" 
d="M455 1102v-721q0 -119 98 -119t98 119v721h383v-742q0 -190 -141 -290q-141 -101 -339 -101q-197 0 -339 100q-143 100 -143 291v742h383zM464 1268q-26 0 -44 -10t-29 -50l-209 80q22 109 60 152q68 78 164 80q39 0 125 -25t109 -26q24 -1 44 11t29 60l209 -82
q-38 -131 -98 -188t-150 -58q-42 0 -113 28t-97 28z" />
    <glyph glyph-name="Umacron" unicode="&#x16a;" horiz-adv-x="1345" 
d="M856 522v912h377v-922q0 -388 -305 -503q-106 -40 -254 -40q-282 0 -422 147q-141 147 -139 396v922h376v-912q0 -203 185 -205q182 0 182 205zM362 1837h621v-262h-621v262z" />
    <glyph glyph-name="umacron" unicode="&#x16b;" horiz-adv-x="1105" 
d="M455 1102v-721q0 -119 98 -119t98 119v721h383v-742q0 -190 -141 -290q-141 -101 -339 -101q-197 0 -339 100q-143 100 -143 291v742h383zM244 1505h620v-262h-620v262z" />
    <glyph glyph-name="Ubreve" unicode="&#x16c;" horiz-adv-x="1345" 
d="M856 522v912h377v-922q0 -388 -305 -503q-106 -40 -254 -40q-282 0 -422 147q-141 147 -139 396v922h376v-912q0 -203 185 -205q182 0 182 205zM672 1538q-166 0 -250 91t-84 245h235q0 -63 33 -86t66 -23q34 0 66 23t32 86h236q0 -154 -84 -245t-250 -91z" />
    <glyph glyph-name="ubreve" unicode="&#x16d;" horiz-adv-x="1105" 
d="M455 1102v-721q0 -119 98 -119t98 119v721h383v-742q0 -190 -141 -290q-141 -101 -339 -101q-197 0 -339 100q-143 100 -143 291v742h383zM553 1206q-166 0 -250 91t-84 245h236q1 -63 33 -86q64 -46 130 0q33 23 33 86h236q0 -154 -84 -245t-250 -91z" />
    <glyph glyph-name="Uring" unicode="&#x16e;" horiz-adv-x="1345" 
d="M856 522v912h377v-922q0 -388 -305 -503q-106 -40 -254 -40q-282 0 -422 147q-141 147 -139 396v922h376v-912q0 -203 185 -205q182 0 182 205zM737 1706q1 61 -65 61t-66 -61t66 -61t65 61zM918 1706q0 -88 -67 -147t-179 -59t-180 58q-66 60 -66 148t67 147t179 59
t180 -58q66 -60 66 -148z" />
    <glyph glyph-name="uring" unicode="&#x16f;" horiz-adv-x="1105" 
d="M455 1102v-721q0 -119 98 -119t98 119v721h383v-742q0 -190 -141 -290q-141 -101 -339 -101q-197 0 -339 100q-143 100 -143 291v742h383zM618 1374q0 62 -66 62t-65 -62q-1 -62 65 -61q66 0 66 61zM799 1374q0 -88 -67 -147q-68 -59 -180 -59t-178 58q-66 60 -67 148
q0 88 67 148q68 60 180 59q112 1 178 -59t67 -148z" />
    <glyph glyph-name="Uhungarumlaut" unicode="&#x170;" horiz-adv-x="1345" 
d="M856 522v912h377v-922q0 -388 -305 -503q-106 -40 -254 -40q-282 0 -422 147q-141 147 -139 396v922h376v-912q0 -203 185 -205q182 0 182 205zM1223 1868l-265 -324h-251l155 324h361zM766 1868l-162 -324h-227l53 324h336z" />
    <glyph glyph-name="uhungarumlaut" unicode="&#x171;" horiz-adv-x="1105" 
d="M455 1102v-721q0 -119 98 -119t98 119v721h383v-742q0 -190 -141 -290q-141 -101 -339 -101q-197 0 -339 100q-143 100 -143 291v742h383zM1108 1536l-264 -324h-252l156 324h360zM651 1536l-162 -324h-227l53 324h336z" />
    <glyph glyph-name="Uogonek" unicode="&#x172;" horiz-adv-x="1345" 
d="M475 -219q0 124 74 196q-219 30 -327.5 172.5t-108.5 362.5v922h376v-912q0 -205 136.5 -205t183.5 47.5t47 157.5v912h377v-922q0 -412 -336 -512q-53 -29 -84 -65.5t-31 -69.5q0 -49 52 -49q42 0 71 41l146 -164q-100 -137 -293 -137q-194 0 -238.5 85t-44.5 140z" />
    <glyph glyph-name="uogonek" unicode="&#x173;" horiz-adv-x="1105" 
d="M907 -307q-100 -137 -293 -137t-237.5 85t-44.5 141t20.5 111.5t59.5 90.5q-232 46 -286 170.5t-54 205.5v742h383v-721q0 -119 98 -119t98 119v721h383v-742q0 -203 -110.5 -272.5t-167.5 -87.5q-55 -29 -86 -65.5t-31 -69.5q0 -49 51 -49q42 0 72 41z" />
    <glyph glyph-name="Wcircumflex" unicode="&#x174;" horiz-adv-x="1884" 
d="M0 1434h401l134 -891l217 891h381l217 -891l133 891h401l-270 -1434h-461l-211 852l-211 -852h-461zM842 1567h-289l217 323h324l217 -323h-310l-69 127z" />
    <glyph glyph-name="wcircumflex" unicode="&#x175;" horiz-adv-x="1622" 
d="M387 1102l105 -658l137 658h422l125 -658l90 658h376l-280 -1102h-420l-125 674l-133 -674h-410l-294 1102h407zM721 1212h-289l217 324h324l217 -324h-309l-70 127z" />
    <glyph glyph-name="Ycircumflex" unicode="&#x176;" horiz-adv-x="1150" 
d="M764 0h-377v473l-428 961h418l201 -545l206 545h408l-428 -961v-473zM485 1567h-288l217 323h323l217 -323h-309l-70 127z" />
    <glyph glyph-name="ycircumflex" unicode="&#x177;" horiz-adv-x="1040" 
d="M-27 -82q84 -43 169 -43q86 1 113 23t43 50q15 28 34 70l18 45l-395 1039h401l176 -613l158 613h371l-334 -1032q-94 -287 -215 -403t-336 -116q-150 0 -289 60zM442 1212h-288l217 324h323l217 -324h-309l-70 127z" />
    <glyph glyph-name="Ydieresis" unicode="&#x178;" horiz-adv-x="1150" 
d="M764 0h-377v473l-428 961h418l201 -545l206 545h408l-428 -961v-473zM903 1874v-291h-280v291h280zM528 1874v-291h-280v291h280z" />
    <glyph glyph-name="Zacute" unicode="&#x179;" horiz-adv-x="1155" 
d="M1094 1434v-254l-545 -846h555v-334h-1059v252l545 848h-527v334h1031zM995 1890l-243 -323h-299l176 323h366z" />
    <glyph glyph-name="zacute" unicode="&#x17a;" horiz-adv-x="954" 
d="M913 1102v-246l-393 -559h402v-297h-875v231l391 574h-383v297h858zM883 1536l-244 -324h-299l176 324h367z" />
    <glyph glyph-name="Zdotaccent" unicode="&#x17b;" horiz-adv-x="1155" 
d="M1094 1434v-254l-545 -846h555v-334h-1059v252l545 848h-527v334h1031zM748 1874v-291h-302v291h302z" />
    <glyph glyph-name="zdotaccent" unicode="&#x17c;" horiz-adv-x="954" 
d="M913 1102v-246l-393 -559h402v-297h-875v231l391 574h-383v297h858zM645 1520v-291h-301v291h301z" />
    <glyph glyph-name="Zcaron" unicode="&#x17d;" horiz-adv-x="1155" 
d="M1094 1434v-254l-545 -846h555v-334h-1059v252l545 848h-527v334h1031zM596 1763l70 127h309l-217 -323h-324l-217 323h289z" />
    <glyph glyph-name="zcaron" unicode="&#x17e;" horiz-adv-x="954" 
d="M913 1102v-246l-393 -559h402v-297h-875v231l391 574h-383v297h858zM504 1409l69 127h310l-217 -324h-324l-217 324h289z" />
    <glyph glyph-name="longs" unicode="&#x17f;" horiz-adv-x="645" 
d="M68 -104q86 0 86 94v819h-127v293h127v61q0 221 125 326.5t342 105.5q170 0 305 -47l-64 -299q-109 35 -190 35q-135 0 -135 -104v-1274q0 -175 -99 -257.5t-239 -82.5t-267 53l31 299q68 -22 105 -22z" />
    <glyph glyph-name="florin" unicode="&#x192;" 
d="M638 1116q-79 0 -98.5 -36t-19.5 -99v-150h404v-266h-404v-565h-364v565h-156v266h156v142q0 217 100 354t343 137q242 0 356 -102t130 -334l-368 -37q0 125 -79 125z" />
    <glyph glyph-name="Aringacute" unicode="&#x1fa;" horiz-adv-x="1193" 
d="M440 537h258l-131 510zM778 223h-418l-55 -223h-336l404 1434h452l400 -1434h-389zM653 1706q0 61 -65.5 61t-65.5 -61t65.5 -61t65.5 61zM834 1715q0 -97 -67 -156.5t-179.5 -59.5t-179 59.5t-66.5 147.5q0 113 100 170l125 235h367l-191 -241q91 -58 91 -155z" />
    <glyph glyph-name="aringacute" unicode="&#x1fb;" horiz-adv-x="1062" 
d="M1012 283q48 0 116 41l17 -258q-47 -45 -119 -71t-127 -26q-99 0 -169 40t-81 114q-53 -74 -134 -114t-155 -40q-146 0 -234.5 82t-88.5 249t155.5 265t382.5 107v78q0 53 -17 75.5t-66 22.5t-64.5 -35t-15.5 -88l-336 29q12 182 131 280.5t327 98.5t316 -98t108 -263
v-428q0 -61 54 -61zM481 276q40 0 94 27v164q-122 -7 -150 -44.5t-28 -66.5q0 -80 84 -80zM631 1374.5q0 61.5 -65.5 61.5t-65.5 -61.5t65.5 -61.5t65.5 61.5zM811 1374q0 -88 -66.5 -147.5t-179 -59.5t-179.5 59.5t-67 147.5q0 113 101 170l125 236h323l-184 -232
q72 -23 99.5 -73t27.5 -101z" />
    <glyph glyph-name="AEacute" unicode="&#x1fc;" horiz-adv-x="1732" 
d="M782 537v483l-223 -483h223zM1632 1434v-338h-473v-232h449v-307h-449v-219h502v-338h-879v223h-356l-111 -223h-374l702 1434h989zM1356 1868l-244 -324h-299l176 324h367z" />
    <glyph glyph-name="aeacute" unicode="&#x1fd;" horiz-adv-x="1497" 
d="M1085 657q0 97 -16 135q-15 38 -71 38t-69 -45q-13 -44 -14 -128h170zM481 276q53 0 109 41q-14 79 -17 150q-173 -10 -176 -111q0 -80 84 -80zM1098 262q129 0 301 100l24 -278q-115 -61 -203 -88t-219 -27q-230 0 -333 144q-124 -144 -295 -144q-235 0 -310 170
q-27 61 -27 153q1 178 166 279q147 92 373 101v78q0 54 -17 76t-66 22q-48 0 -64 -35t-16 -88l-336 29q12 184 131 281q119 98 296 98t261 -62q79 60 244 62q432 0 432 -490v-186h-525q7 -111 55 -153t128 -42zM1178 1536l-244 -324h-299l176 324h367z" />
    <glyph glyph-name="Oslashacute" unicode="&#x1fe;" horiz-adv-x="1275" 
d="M836 717q0 94 -9 155l-321 -505q48 -48 112 -49q64 0 101 16q117 52 117 383zM418 717q0 -102 12 -176l334 522q-46 53 -138 53t-150 -85q-58 -86 -58 -314zM1081 1272q154 -192 154 -569q0 -376 -175 -568q-153 -166 -423 -166q-192 0 -330 86l-90 -141l-131 86l104 164
q-149 186 -149 563t175 570q152 167 421 167q193 0 328 -86l86 135l135 -77zM1020 1868l-244 -324h-299l176 324h367z" />
    <glyph glyph-name="oslashacute" unicode="&#x1ff;" horiz-adv-x="1128" 
d="M692 549v30q0 13 -2 27l-223 -280q31 -64 97 -64t96 64q32 64 32 223zM566 840q-66 0 -98 -65t-32 -226v-55l223 280q-27 66 -93 66zM563 1133q195 0 316 -82l94 125l110 -74l-110 -141q109 -143 109 -428t-140 -424q-139 -139 -379 -140q-193 0 -313 82l-100 -129
l-105 78l111 139q-109 143 -109 428t135 425t381 141zM934 1536l-244 -324h-299l176 324h367z" />
    <glyph glyph-name="Scommaaccent" unicode="&#x218;" horiz-adv-x="1116" 
d="M555 1133q-117 0 -117 -101q0 -51 45 -87t113 -69.5t258 -119.5t190 -336q0 -206 -128.5 -328.5t-372.5 -122.5t-355.5 81t-154.5 120l155 303q160 -156 353 -156q63 0 89.5 16.5t26.5 55.5t-45 69.5t-111.5 61.5l-145.5 67t-190.5 128t-111.5 298q0 205 138 328t431 123
t364 -167t75 -298l-365 -28q-8 162 -141 162zM737 -82l-248 -324h-299l177 324h370z" />
    <glyph glyph-name="scommaaccent" unicode="&#x219;" horiz-adv-x="913" 
d="M403.5 262q96.5 0 96.5 47q0 23 -32 42.5t-129.5 66.5t-185 125.5t-87.5 228.5q0 151 107 256t304 105t292.5 -97.5t111.5 -251.5l-299 -59q-4 59 -23 91t-77 32t-58 -57q0 -35 34 -58.5t83 -48.5t191 -90.5t142 -267.5q0 -153 -104 -255t-308 -102t-301.5 59.5
t-133.5 86.5l100 272q180 -125 276.5 -125zM692 -82l-248 -324h-299l177 324h370z" />
    <glyph glyph-name="circumflex" unicode="&#x2c6;" horiz-adv-x="1024" 
d="M422 1212h-289l217 324h324l217 -324h-309l-70 127z" />
    <glyph glyph-name="caron" unicode="&#x2c7;" horiz-adv-x="1024" 
d="M512 1409l70 127h309l-217 -324h-324l-217 324h289z" />
    <glyph glyph-name="breve" unicode="&#x2d8;" horiz-adv-x="1024" 
d="M512 1206q-166 0 -250 91.5t-84 244.5h236q0 -63 32.5 -85.5t65.5 -22.5t65.5 22.5t32.5 85.5h236q0 -154 -84 -245t-250 -91z" />
    <glyph glyph-name="dotaccent" unicode="&#x2d9;" horiz-adv-x="1024" 
d="M662 1520v-291h-302v291h302z" />
    <glyph glyph-name="ring" unicode="&#x2da;" horiz-adv-x="1024" 
d="M578 1374.5q0 61.5 -66 61.5t-66 -61.5t66 -61.5t66 61.5zM758 1374q0 -88 -66.5 -147.5t-179.5 -59.5t-179.5 59.5t-66.5 147.5t66.5 147.5t179.5 59.5t179.5 -59.5t66.5 -147.5z" />
    <glyph glyph-name="ogonek" unicode="&#x2db;" horiz-adv-x="1024" 
d="M856 -307q-100 -137 -293 -137t-237.5 85t-44.5 144t26.5 120.5t73.5 94.5h324q-55 -29 -86 -65.5t-31 -69.5q0 -49 51 -49q42 0 72 41z" />
    <glyph glyph-name="tilde" unicode="&#x2dc;" horiz-adv-x="1024" 
d="M365 1520q48 0 129 -26t105 -26t44.5 11.5t28.5 60.5l209 -82q-37 -131 -97.5 -188.5t-150.5 -57.5q-42 0 -112 28t-97 28t-45.5 -10.5t-28.5 -49.5l-209 80q47 232 224 232z" />
    <glyph glyph-name="hungarumlaut" unicode="&#x2dd;" horiz-adv-x="1024" 
d="M1028 1536l-264 -324h-252l156 324h360zM571 1536l-161 -324h-228l54 324h335z" />
    <glyph glyph-name="Delta" unicode="&#x394;" horiz-adv-x="1153" 
d="M426 332h293l-146 626zM354 1434h445l385 -1434h-1215z" />
    <glyph glyph-name="Delta" unicode="&#x2206;" horiz-adv-x="1153" 
d="M426 332h293l-146 626zM354 1434h445l385 -1434h-1215z" />
    <glyph glyph-name="Omega" unicode="&#x3a9;" horiz-adv-x="1308" 
d="M1229 780q0 -262 -146 -434h199v-346h-571v338q120 120 120 405q0 233 -33.5 291t-66.5 70t-78 12t-77.5 -13t-65.5 -73t-33 -287q0 -289 121 -405v-338h-571v346h198q-145 171 -145 434q0 545 225 614.5t425 69.5t349.5 -149.5t149.5 -534.5z" />
    <glyph glyph-name="Omega" unicode="&#x2126;" horiz-adv-x="1308" 
d="M1229 780q0 -262 -146 -434h199v-346h-571v338q120 120 120 405q0 233 -33.5 291t-66.5 70t-78 12t-77.5 -13t-65.5 -73t-33 -287q0 -289 121 -405v-338h-571v346h198q-145 171 -145 434q0 545 225 614.5t425 69.5t349.5 -149.5t149.5 -534.5z" />
    <glyph glyph-name="pi" unicode="&#x3c0;" horiz-adv-x="1267" 
d="M31 1102h1206v-334h-131v-768h-373v768h-196v-768h-373v768h-133v334z" />
    <glyph glyph-name="uni0400" unicode="&#x400;" horiz-adv-x="1073" 
d="M973 1434v-338h-473v-232h448v-307h-448v-219h501v-338h-878v1434h850zM553 1868l176 -324h-299l-244 324h367z" />
    <glyph glyph-name="uni0401" unicode="&#x401;" horiz-adv-x="1073" 
d="M973 1434v-338h-473v-232h448v-307h-448v-219h501v-338h-878v1434h850zM877 1851v-290h-281v290h281zM502 1851v-290h-281v290h281z" />
    <glyph glyph-name="uni0402" unicode="&#x402;" horiz-adv-x="1503" 
d="M914 580q-87 0 -166 -37v-543h-377v1096h-344v338h1181v-338h-460v-215q105 31 156.5 36t137.5 5t169 -31t157 -121t74 -367v-53q0 -224 -82.5 -363t-255.5 -229l-193 211q82 68 118 150t36 211v53q0 106 -32 151.5t-119 45.5z" />
    <glyph glyph-name="uni0403" unicode="&#x403;" horiz-adv-x="1001" 
d="M961 1434v-338h-461v-1096h-377v1434h838zM907 1868l-243 -324h-299l176 324h366z" />
    <glyph glyph-name="uni0404" unicode="&#x404;" horiz-adv-x="1169" 
d="M432 842h471v-301h-454q37 -191 186 -215q43 -8 90 -9q168 0 360 103l31 -326q-210 -122 -448 -125q-457 0 -583 415q-44 144 -44 347q0 383 145 558t435 175q358 0 476 -256q42 -90 48 -219l-354 -22q-15 149 -172 149q-104 0 -146 -66q-41 -67 -41 -208z" />
    <glyph glyph-name="uni0405" unicode="&#x405;" horiz-adv-x="1116" 
d="M555 1133q-117 0 -117 -101q0 -51 52 -93t191 -104q138 -63 206 -114q157 -118 157 -312t-128 -317t-368 -123t-421 125q-51 37 -94 76l155 303q160 -156 353 -156q118 0 116 68q0 43 -45 74q-46 31 -112 61l-145 67q-79 36 -145 91q-156 129 -157 335q0 206 139 328
q139 123 359 123q364 0 468 -244q38 -89 42 -221l-365 -28q-8 162 -141 162z" />
    <glyph glyph-name="uni0406" unicode="&#x406;" horiz-adv-x="622" 
d="M500 1434v-1434h-377v1434h377z" />
    <glyph glyph-name="uni0407" unicode="&#x407;" horiz-adv-x="622" 
d="M641 1851v-290h-281v290h281zM266 1851v-290h-280v290h280zM123 1434h377v-1434h-377v1434z" />
    <glyph glyph-name="uni0408" unicode="&#x408;" horiz-adv-x="659" 
d="M180 1434h377v-1076q0 -186 -98 -287t-243 -101t-247 48l43 318q100 -38 147 -2q22 16 21 69v1031z" />
    <glyph glyph-name="uni0409" unicode="&#x409;" horiz-adv-x="1865" 
d="M1260 684q-40 0 -60 -4v-363h68q94 0 128 28t46 64.5t12 94.5t-14.5 92.5t-41 54t-62.5 26.5t-76 7zM823 0v1096h-231l-29 -521q-6 -104 -19.5 -207.5t-87 -235.5t-343.5 -132h-113v346h63q68 0 91.5 47.5t31.5 181.5l43 859h971v-441q33 8 100 8q260 0 392.5 -116.5
t132.5 -377.5t-133 -384t-424 -123h-445z" />
    <glyph glyph-name="uni040A" unicode="&#x40a;" horiz-adv-x="1884" 
d="M1279 684q-40 0 -60 -4v-363h67q95 0 128.5 28t46 64.5t12.5 94.5t-14.5 92.5t-41 54t-62.5 26.5t-76 7zM842 0v567h-342v-567h-377v1434h377v-506h342v506h377v-441q33 8 100 8q260 0 392 -116.5t132 -377.5t-133 -384t-424 -123h-444z" />
    <glyph glyph-name="uni040B" unicode="&#x40b;" horiz-adv-x="1544" 
d="M914 580q-87 0 -166 -37v-543h-377v1096h-344v338h1181v-338h-460v-215q105 31 156.5 36t137.5 5t169 -31t157 -121t74 -367v-403h-377v383q0 106 -32 151.5t-119 45.5z" />
    <glyph glyph-name="uni040C" unicode="&#x40c;" horiz-adv-x="1292" 
d="M500 1434v-568h10l377 568h399l-440 -613q76 -18 115 -72t61 -120l98 -295q54 -178 170 -334h-440q-43 57 -69 125t-54 170l-53 182q-23 61 -49 80q-27 18 -86 18h-39v-575h-377v1434h377zM1051 1872l-244 -324h-299l176 324h367z" />
    <glyph glyph-name="uni040D" unicode="&#x40d;" horiz-adv-x="1413" 
d="M123 0v1434h369v-762l421 762h390v-1434h-371v791l-418 -791h-391zM696 1868l176 -324h-299l-243 324h366z" />
    <glyph glyph-name="uni040E" unicode="&#x40e;" horiz-adv-x="1245" 
d="M244 0h-66v317h37q111 -1 150 17t58 43t36 65l-459 992h416l237 -613l234 613h358l-375 -1014q-41 -109 -86 -188q-90 -158 -286 -206q-102 -26 -254 -26zM647 1530q-166 0 -250 91t-84 245h236q0 -63 33 -86q34 -23 66 -23t65 23t32 86h236q0 -154 -84 -245t-250 -91z
" />
    <glyph glyph-name="uni040F" unicode="&#x40f;" horiz-adv-x="1388" 
d="M500 360h389v1074h377v-1434h-398l-10 -315h-328l-10 315h-397v1434h377v-1074z" />
    <glyph glyph-name="uni0410" unicode="&#x410;" horiz-adv-x="1193" 
d="M440 537h258l-131 510zM778 223h-418l-55 -223h-336l404 1434h452l400 -1434h-389z" />
    <glyph glyph-name="uni0411" unicode="&#x411;" horiz-adv-x="1175" 
d="M592 635q-72 0 -92 -4v-318h88q88 0 127 32t39 132t-45 129t-117 29zM640 928q238 0 361 -102t123 -346q0 -245 -123.5 -362.5t-412.5 -117.5h-465v1434h874v-338h-497v-176q36 8 140 8z" />
    <glyph glyph-name="uni0412" unicode="&#x412;" horiz-adv-x="1212" 
d="M608 1434q249 0 368 -67q152 -86 152 -298q0 -121 -59 -213t-160 -127q119 -18 191 -96t71 -215q0 -226 -144 -322t-413 -96h-491v1434h485zM612 860q128 0 126 126q-1 99 -42 127q-24 17 -94 20h-102v-273h112zM614 301q144 0 144 145q0 72 -33 106t-111 34h-114v-285
h114z" />
    <glyph glyph-name="uni0413" unicode="&#x413;" horiz-adv-x="1001" 
d="M961 1434v-338h-461v-1096h-377v1434h838z" />
    <glyph glyph-name="uni0414" unicode="&#x414;" horiz-adv-x="1347" 
d="M586 793q0 -276 -76 -453h338v756h-262v-303zM211 778v656h1014v-1094h102l-20 -655h-316l-41 315h-553l-41 -315h-315l-21 655h113q78 147 78 438z" />
    <glyph glyph-name="uni0415" unicode="&#x415;" horiz-adv-x="1091" 
d="M973 1434v-338h-473v-232h448v-307h-448v-219h501v-338h-878v1434h850z" />
    <glyph glyph-name="uni0416" unicode="&#x416;" horiz-adv-x="1921" 
d="M1149 1434v-568h10l357 568h399l-440 -613q76 -18 114.5 -72.5t61.5 -119.5l98 -295q55 -181 172 -334h-440q-43 57 -70 125t-55 170l-53 182q-23 61 -47.5 79.5t-67.5 18.5h-39v-575h-377v575h-39q-43 0 -67.5 -18t-47.5 -80l-53 -182q-29 -102 -55.5 -170t-69.5 -125
h-440q117 153 172 334l98 295q23 66 62 120t114 72l-440 613h400l356 -568h10v568h377z" />
    <glyph glyph-name="uni0417" unicode="&#x417;" horiz-adv-x="1103" 
d="M1057 424q0 -229 -136 -342t-376 -113q-295 0 -508 193l156 303q73 -72 159 -110t156 -38q152 0 151 115q0 61 -37 86q-38 25 -102 25h-184v329h174q55 0 88 35t33 90q0 119 -109 119t-119 -143l-372 94q33 189 164 293t351 104t352 -110t132 -306q0 -197 -180 -292
q207 -61 207 -332z" />
    <glyph glyph-name="uni0418" unicode="&#x418;" horiz-adv-x="1413" 
d="M123 0v1434h369v-783l421 783h390v-1434h-371v811l-418 -811h-391z" />
    <glyph glyph-name="uni0419" unicode="&#x419;" horiz-adv-x="1425" 
d="M706.5 1561q-165.5 0 -249.5 91t-84 244h235q0 -63 33 -85.5t65.5 -22.5t65.5 22.5t33 85.5h235q0 -154 -84 -244.5t-249.5 -90.5zM123 0v1434h369v-783l421 783h390v-1434h-371v811l-418 -811h-391z" />
    <glyph glyph-name="uni041A" unicode="&#x41a;" horiz-adv-x="1292" 
d="M500 1434v-568h10l377 568h399l-440 -613q76 -18 114.5 -72.5t61.5 -119.5l98 -295q56 -185 170 -334h-440q-43 57 -68.5 125t-54.5 170l-53 182q-23 61 -49.5 79.5t-85.5 18.5h-39v-575h-377v1434h377z" />
    <glyph glyph-name="uni041B" unicode="&#x41b;" horiz-adv-x="1323" 
d="M1200 1434v-1434h-377v1096h-231l-29 -521q-6 -104 -39 -339.5t-411 -235.5h-113v340h63q72 0 94.5 54.5t28.5 180.5l43 859h971z" />
    <glyph glyph-name="uni041C" unicode="&#x41c;" horiz-adv-x="1753" 
d="M623 1434l245 -807l244 807h432l129 -1434h-381l-55 803l-207 -688h-330l-202 690l-56 -805h-381l129 1434h433z" />
    <glyph glyph-name="uni041D" unicode="&#x41d;" horiz-adv-x="1382" 
d="M500 1434v-547h389v547h377v-1434h-377v526h-389v-526h-377v1434h377z" />
    <glyph glyph-name="uni041E" unicode="&#x41e;" horiz-adv-x="1275" 
d="M637 1116q-104 0 -161 -85q-58 -85 -58 -314q0 -329 134 -383q89 -36 167 0q114 49 116 380q1 331 -116 386q-37 16 -82 16zM638 1464q124 0 232 -39t190 -128q175 -192 175 -581t-175 -581q-153 -166 -423 -166q-419 0 -549 397q-47 142 -47 349t47 350t128 232
q82 89 190 128t232 39z" />
    <glyph glyph-name="uni041F" unicode="&#x41f;" horiz-adv-x="1388" 
d="M1266 1434v-1434h-377v1096h-389v-1096h-377v1434h1143z" />
    <glyph glyph-name="uni0420" unicode="&#x420;" horiz-adv-x="1146" 
d="M567 1434q295 0 416 -101t121 -374t-122 -400t-382 -127q-68 0 -100 8v-440h-377v1434h444zM500 754q20 -4 85 -4t95 26q53 45 53 156q0 112 -37 148t-129 36h-67v-362z" />
    <glyph glyph-name="uni0421" unicode="&#x421;" horiz-adv-x="1124" 
d="M639 1116q-113 0 -162 -89t-49 -257t24 -249t64 -126q68 -76 223 -77q154 -1 346 102l31 -326q-210 -122 -448 -125q-457 0 -583 415q-44 144 -44 347q0 383 156 558t444 175q365 0 467 -277q37 -97 37 -235l-365 -26q0 190 -141 190z" />
    <glyph glyph-name="uni0422" unicode="&#x422;" horiz-adv-x="1118" 
d="M1092 1434v-355h-344v-1079h-377v1079h-344v355h1065z" />
    <glyph glyph-name="uni0423" unicode="&#x423;" horiz-adv-x="1245" 
d="M178 0v317h37q111 0 149.5 17.5t58 42t36.5 65.5l-459 992h416l237 -613l234 613h358l-375 -1014q-41 -109 -86 -187.5t-149 -155.5t-391 -77h-66z" />
    <glyph glyph-name="uni0424" unicode="&#x424;" horiz-adv-x="1480" 
d="M408 679q0 -120 50.5 -198t143.5 -110v692q-143 -49 -168.5 -156.5t-25.5 -227.5zM1450 645q0 -219 -150.5 -376.5t-418.5 -182.5v-117h-279v117q-408 32 -489.5 255.5t-81.5 444t149.5 378t421.5 184.5v116h279v-118q408 -38 488.5 -260t80.5 -441zM1073 717
q0 162 -55 239.5t-137 106.5v-692q192 66 192 346z" />
    <glyph glyph-name="uni0425" unicode="&#x425;" horiz-adv-x="1155" 
d="M-27 1434h435l208 -402l199 402h399l-395 -703l414 -731h-438l-211 397l-211 -397h-404l396 705z" />
    <glyph glyph-name="uni0426" unicode="&#x426;" horiz-adv-x="1421" 
d="M123 0v1434h377v-1096h389v1096h377v-1096h155l-20 -653h-287l-41 315h-950z" />
    <glyph glyph-name="uni0427" unicode="&#x427;" horiz-adv-x="1327" 
d="M659 829q113 0 179 31v574h376v-1434h-376v516q-120 -35 -235 -35t-308 76t-193 467v410h377v-400q0 -205 180 -205z" />
    <glyph glyph-name="uni0428" unicode="&#x428;" horiz-adv-x="1949" 
d="M123 0v1434h377v-1096h286v1096h377v-1096h287v1096h377v-1434h-1704z" />
    <glyph glyph-name="uni0429" unicode="&#x429;" horiz-adv-x="1982" 
d="M123 0v1434h377v-1096h286v1096h377v-1096h287v1096h377v-1096h155l-18 -653h-291l-41 315h-1509z" />
    <glyph glyph-name="uni042A" unicode="&#x42a;" horiz-adv-x="1288" 
d="M683 684q-40 0 -60 -4v-363h67q95 0 128.5 28t46 64.5t12.5 94.5t-14.5 92.5t-41 54t-62.5 26.5t-76 7zM246 0v1096h-219v338h596v-441q33 8 100 8q260 0 392 -116.5t132 -377.5t-133 -384t-424 -123h-444z" />
    <glyph glyph-name="uni042B" unicode="&#x42b;" horiz-adv-x="1783" 
d="M1661 1434v-1434h-377v1434h377zM560 684q-40 0 -60 -4v-363h67q95 0 128.5 28t46 64.5t12.5 94.5t-14.5 92.5t-41 54t-62.5 26.5t-76 7zM123 0v1434h377v-441q33 8 100 8q260 0 392 -116.5t132 -377.5t-133 -384t-424 -123h-444z" />
    <glyph glyph-name="uni042C" unicode="&#x42c;" horiz-adv-x="1165" 
d="M560 684q-40 0 -60 -4v-363h67q95 0 128.5 28t46 64.5t12.5 94.5t-14.5 92.5t-41 54t-62.5 26.5t-76 7zM123 0v1434h377v-441q33 8 100 8q260 0 392 -116.5t132 -377.5t-133 -384t-424 -123h-444z" />
    <glyph glyph-name="uni042D" unicode="&#x42d;" horiz-adv-x="1169" 
d="M567 1116q-157 0 -172 -149l-354 22q11 245 152.5 360t371.5 115q289 0 434.5 -175t145.5 -562t-162.5 -572.5t-464.5 -185.5q-224 0 -448 125l30 326q192 -103 361 -103q106 0 156.5 32t78 76t41.5 116h-454v301h471q0 141 -41 207.5t-146 66.5z" />
    <glyph glyph-name="uni042E" unicode="&#x42e;" horiz-adv-x="1921" 
d="M1282 1116q-45 0 -85 -16.5t-69.5 -60.5t-47 -121.5t-17.5 -200.5t17.5 -200t47 -122t69.5 -61.5t85 -16.5t82 16.5t62.5 61.5t40 122t14.5 200t-14.5 200.5t-40 121.5t-62.5 60.5t-82 16.5zM1289 1464q413 0 502 -271t89 -569.5t-164 -476.5t-434 -178
q-360 0 -461.5 202t-122.5 355h-198v-526h-377v1434h377v-547h196q34 301 191 439t402 138z" />
    <glyph glyph-name="uni042F" unicode="&#x42f;" horiz-adv-x="1214" 
d="M631 811q34 0 84 8v297h-90q-88 0 -127 -33.5t-39 -111.5t44 -119t128 -41zM66 1014q0 110 44 196t148 155t367 69h467v-1434h-377v526h-47q-62 0 -84.5 -45t-32 -84t-25.5 -95l-29.5 -101t-25.5 -80t-24.5 -63.5l-24.5 -57.5h-422q60 88 134.5 299.5t100 254t46 58
t51.5 27.5q-185 35 -225.5 150t-40.5 225z" />
    <glyph glyph-name="uni0430" unicode="&#x430;" horiz-adv-x="1144" 
d="M958 344q0 -61 66 -61q37 0 104 41l17 -258q-47 -45 -119 -71t-150 -26q-78 1 -125 27q-91 51 -102 127q-53 -74 -134 -114t-155 -40q-146 0 -236 83q-89 83 -87 239q0 179 165 280q147 92 373 101v78q0 54 -17 76t-66 22q-48 0 -64 -35t-16 -88l-336 29q12 184 131 281
q119 98 327 98t317 -99t107 -262v-428zM481 276q38 0 94 27v164q-74 -4 -110 -23q-66 -33 -68 -88q0 -80 84 -80z" />
    <glyph glyph-name="uni0431" unicode="&#x431;" horiz-adv-x="1128" 
d="M564 262q128 0 128 245q0 192 -31.5 247t-96.5 55q-69 0 -98.5 -57.5t-29.5 -210.5q0 -152 32 -215.5t96 -63.5zM661 1102q220 0 320 -139t100 -427t-139 -427.5t-379 -139.5q-520 0 -520 772q0 252 53.5 408t167.5 260q147 134 398 147t327 29v-295q-90 -20 -168 -23
t-145.5 -9.5t-124.5 -21.5t-105 -60q-92 -84 -94 -220q89 146 309 146z" />
    <glyph glyph-name="uni0432" unicode="&#x432;" horiz-adv-x="1159" 
d="M555 1102q269 0 389.5 -60t120.5 -223q0 -111 -60.5 -171t-162.5 -87q121 -16 193.5 -72.5t72.5 -158.5t-27.5 -161.5t-118.5 -114t-401 -54.5h-452v1102h446zM492 662h63q63 0 90 25t27 89t-35 79t-92 15h-53v-208zM492 231h65q80 0 105.5 30t25.5 84t-26.5 80
t-104.5 26h-65v-220z" />
    <glyph glyph-name="uni0433" unicode="&#x433;" horiz-adv-x="845" 
d="M815 1102v-322h-323v-780h-383v1102h706z" />
    <glyph glyph-name="uni0434" unicode="&#x434;" horiz-adv-x="1218" 
d="M709 317v463h-166l-13 -202q-11 -184 -59 -261h238zM1092 1102v-785h116l-12 -632h-303l-14 315h-539l-14 -315h-306l-10 632h105q76 43 90 271l24 514h863z" />
    <glyph glyph-name="uni0435" unicode="&#x435;" horiz-adv-x="1028" 
d="M629 262q129 0 301 100l24 -278q-115 -61 -203 -88t-208 -27q-496 0 -496 572q0 309 129 450t363 142q432 0 432 -490v-186h-525q6 -111 54 -153t129 -42zM616 657q0 97 -16 135t-72 38t-68 -45q-13 -44 -14 -128h170z" />
    <glyph glyph-name="uni0436" unicode="&#x436;" horiz-adv-x="1722" 
d="M1108 403h-55v-403h-383v403h-56q-55 0 -77.5 -30.5t-33.5 -76.5l-18.5 -80l-22.5 -98t-50 -118h-412q50 93 96 243l81.5 253t174.5 139l-348 467h438l197 -416h31v416h383v-416h30l197 416h438l-348 -467q136 -35 172.5 -138.5t82.5 -252.5t97 -244h-411
q-42 65 -61 157.5t-30 138.5t-34 76.5t-78 30.5z" />
    <glyph glyph-name="uni0437" unicode="&#x437;" horiz-adv-x="1013" 
d="M565 762q0 104 -88 104q-53 0 -73.5 -32.5t-20.5 -88.5l-334 29q0 190 113.5 274.5t324.5 84.5q333 0 398 -119.5t65 -193.5q0 -125 -64 -195t-157 -88q159 -21 196.5 -106t37.5 -157t-66.5 -189.5t-380.5 -117.5q-161 0 -266 20t-199 70l25 279q103 -60 203 -73t137 -13
q137 0 137 88q0 41 -29.5 57.5t-85.5 16.5h-211v243h222q61 0 88.5 31.5t27.5 75.5z" />
    <glyph glyph-name="uni0438" unicode="&#x438;" horiz-adv-x="1228" 
d="M117 1102h383v-576l237 576h383v-1102h-383v518l-237 -518h-391l8 14v1088z" />
    <glyph glyph-name="uni0439" unicode="&#x439;" horiz-adv-x="1228" 
d="M608 1206q-166 0 -250 91t-84 245h236q0 -63 33 -86q64 -45 131 0q33 23 33 86h235q0 -154 -84 -245t-250 -91zM117 1102h383v-576l237 576h383v-1102h-383v518l-237 -518h-391l8 14v1088z" />
    <glyph glyph-name="uni043A" unicode="&#x43a;" horiz-adv-x="1185" 
d="M492 1102v-416h30l221 416h439l-348 -467q137 -35 172.5 -138.5l83.5 -255.5t96 -241h-412q-41 63 -62.5 139.5t-45.5 138.5t-48 93.5t-79 31.5h-47v-403h-383v1102h383z" />
    <glyph glyph-name="uni043B" unicode="&#x43b;" horiz-adv-x="1183" 
d="M1075 1102v-1102h-383v780h-172l-20 -370q-11 -242 -124 -326t-366 -84v324q75 5 110.5 36.5t39.5 133.5l24 608h891z" />
    <glyph glyph-name="uni043C" unicode="&#x43c;" horiz-adv-x="1572" 
d="M627 84l-172 559l-47 -643h-361l103 1102h425l211 -651l211 651h426l103 -1102h-361l-47 643l-172 -559h-319z" />
    <glyph glyph-name="uni043D" unicode="&#x43d;" horiz-adv-x="1198" 
d="M707 395h-215v-395h-383v1102h383v-385h215v385h383v-1102h-383v395z" />
    <glyph glyph-name="uni043E" unicode="&#x43e;" horiz-adv-x="1128" 
d="M692 550q0 162 -32 226t-96 64t-96 -65t-32 -225t32 -224t96 -64t96 64t32 224zM47 550q0 302 135 442t383 141q248 -1 382 -141t134 -442t-139 -441t-381 -139t-378 138q-136 140 -136 442z" />
    <glyph glyph-name="uni043F" unicode="&#x43f;" horiz-adv-x="1198" 
d="M1090 1102v-1102h-383v780h-215v-780h-383v1102h981z" />
    <glyph glyph-name="uni0440" unicode="&#x440;" horiz-adv-x="1179" 
d="M585 279q41 0 65 10q80 32 79 263q0 230 -83 240q-26 3 -64 3t-90 -13v-485q53 -18 93 -18zM109 1102h319v-123q140 151 326 152q186 2 274 -110q105 -133 105 -448q0 -168 -35 -282q-98 -322 -439 -322q-101 0 -167 23v-402l-383 -61v1573z" />
    <glyph glyph-name="uni0441" unicode="&#x441;" horiz-adv-x="995" 
d="M514 -31q-94 0 -185 33q-282 102 -282 555q0 315 119 445t383 131q325 0 394 -256q22 -82 22 -185l-336 -28q1 81 -9 108q-20 57 -76 57q-55 0 -77 -50q-23 -58 -24 -183t11 -177t36 -83q40 -53 126 -53q184 0 320 79l25 -278q-159 -85 -298 -107q-55 -8 -149 -8z" />
    <glyph glyph-name="uni0442" unicode="&#x442;" horiz-adv-x="968" 
d="M938 1102v-322h-262v-780h-383v780h-262v322h907z" />
    <glyph glyph-name="uni0443" unicode="&#x443;" horiz-adv-x="1040" 
d="M-27 -82q84 -43 169 -43q86 1 113 23t43 50q15 28 34 70l18 45l-395 1039h401l176 -613l158 613h371l-334 -1032q-94 -287 -215 -403t-336 -116q-150 0 -289 60z" />
    <glyph glyph-name="uni0444" unicode="&#x444;" horiz-adv-x="1609" 
d="M436 549q0 -137 53.5 -202.5t143.5 -88.5v586q-90 -23 -143.5 -90.5t-53.5 -204.5zM1174 549q0 139 -53.5 205.5t-143.5 89.5v-588q88 23 142.5 88.5t54.5 204.5zM47 549q0 264 150.5 403.5t435.5 169.5v373h344v-373q285 -31 435.5 -170t150.5 -403t-151.5 -402.5
t-434.5 -166.5v-451h-344v451q-586 60 -586 569z" />
    <glyph glyph-name="uni0445" unicode="&#x445;" horiz-adv-x="1026" 
d="M387 1102l133 -305l148 305h393l-324 -537l299 -565h-415l-136 293l-145 -293h-375l305 545l-288 557h405z" />
    <glyph glyph-name="uni0446" unicode="&#x446;" horiz-adv-x="1216" 
d="M1090 317h116l-14 -632h-301l-14 315h-768v1102h383v-785h215v785h383v-785z" />
    <glyph glyph-name="uni0447" unicode="&#x447;" horiz-adv-x="1177" 
d="M445 317q-175 0 -266 94.5t-91 282.5v408h383v-336q0 -92 115 -92q49 0 100 14v414h383v-1102h-383v367q-144 -50 -241 -50z" />
    <glyph glyph-name="uni0448" unicode="&#x448;" horiz-adv-x="1759" 
d="M109 0v1102h383v-785h196v785h383v-785h197v785h383v-1102h-1542z" />
    <glyph glyph-name="uni0449" unicode="&#x449;" horiz-adv-x="1777" 
d="M109 0v1102h383v-785h196v785h383v-785h197v785h383v-785h116l-14 -632h-301l-14 315h-1329z" />
    <glyph glyph-name="uni044A" unicode="&#x44a;" horiz-adv-x="1284" 
d="M879 401q0 134 -142 134h-23q-22 0 -38 -5v-254h72q70 0 100.5 30t30.5 95zM801 827q452 0 452 -413q0 -235 -135.5 -324.5t-369.5 -89.5h-455v780h-262v322h645v-283q46 8 125 8z" />
    <glyph glyph-name="uni044B" unicode="&#x44b;" horiz-adv-x="1665" 
d="M694 401q0 134 -141 134h-23q-22 0 -38 -5v-254h71q70 0 100.5 30t30.5 95zM617 827q452 0 452 -413q0 -235 -135.5 -324.5t-370.5 -89.5h-454v1102h383v-283q46 8 125 8zM1556 1102v-1102h-382v1102h382z" />
    <glyph glyph-name="uni044C" unicode="&#x44c;" horiz-adv-x="1099" 
d="M694 401q0 134 -141 134h-23q-22 0 -38 -5v-254h71q70 0 100.5 30t30.5 95zM617 827q452 0 452 -413q0 -235 -135.5 -324.5t-370.5 -89.5h-454v1102h383v-283q46 8 125 8z" />
    <glyph glyph-name="uni044D" unicode="&#x44d;" horiz-adv-x="995" 
d="M59 350q138 -80 331 -80q118 0 151 148h-373v231h383q-5 150 -60 173q-17 7 -42 7q-82 0 -82 -106l-332 29q0 381 411 381q262 0 383 -132t119 -444q0 -456 -281 -555q-91 -33 -210 -33q-228 0 -422 103z" />
    <glyph glyph-name="uni044E" unicode="&#x44e;" horiz-adv-x="1685" 
d="M1122 840q-64 0 -96.5 -64.5t-32.5 -225.5t32.5 -224.5t96.5 -63.5t95.5 63.5t31.5 224.5t-31.5 225.5t-95.5 64.5zM1638 549q0 -301 -139 -440.5t-365 -139.5t-355.5 101.5t-164.5 324.5h-122v-395h-383v1102h383v-385h124q68 416 504 416q518 0 518 -584z" />
    <glyph glyph-name="uni044F" unicode="&#x44f;" horiz-adv-x="1150" 
d="M659 858h-71q-70 0 -100.5 -26.5t-30.5 -86.5q0 -123 133 -122h69v235zM1042 1102v-1102h-383v369h-61q-51 0 -71.5 -39t-44.5 -137t-66 -193h-416q73 114 116 248q63 196 130 217q-66 26 -118 98.5t-52 183.5q0 208 133 281.5t366 73.5h467z" />
    <glyph glyph-name="uni0450" unicode="&#x450;" horiz-adv-x="1028" 
d="M629 262q129 0 301 100l24 -278q-115 -61 -203 -88t-208 -27q-496 0 -496 572q0 309 129 450t363 142q432 0 432 -490v-186h-525q6 -111 54 -153t129 -42zM616 657q0 97 -16 135t-72 38t-68 -45q-13 -44 -14 -128h170zM524 1536l176 -324h-299l-243 324h366z" />
    <glyph glyph-name="uni0451" unicode="&#x451;" horiz-adv-x="1028" 
d="M629 262q129 0 301 100l24 -278q-115 -61 -203 -88t-208 -27q-496 0 -496 572q0 309 129 450t363 142q432 0 432 -490v-186h-525q6 -111 54 -153t129 -42zM616 657q0 97 -16 135t-72 38t-68 -45q-13 -44 -14 -128h170zM844 1520v-291h-281v291h281zM469 1520v-291h-281
v291h281z" />
    <glyph glyph-name="uni0452" unicode="&#x452;" horiz-adv-x="1234" 
d="M657 754q-41 0 -106 -13v-741h-383v1229h-168v174h168v92l383 41v-133h330v-174h-330v-182q121 86 275 86q153 0 246 -93.5t93 -279.5v-393q0 -227 -87 -372t-257 -237l-192 211q82 68 117.5 154t35.5 215v301q0 115 -125 115z" />
    <glyph glyph-name="uni0453" unicode="&#x453;" horiz-adv-x="845" 
d="M815 1102v-322h-323v-780h-383v1102h706zM866 1536l-243 -324h-299l176 324h366z" />
    <glyph glyph-name="uni0454" unicode="&#x454;" horiz-adv-x="995" 
d="M605 270q193 0 331 80l25 -278q-194 -103 -429 -103t-360 140.5t-125 451.5t119.5 441.5t382.5 130.5q412 0 412 -381l-332 -29q0 106 -82 106q-51 0 -75 -39t-28 -141h383v-231h-372q32 -148 150 -148z" />
    <glyph glyph-name="uni0455" unicode="&#x455;" horiz-adv-x="913" 
d="M436 262q63 0 64 47q0 23 -32 42t-129 67t-154 97q-121 107 -120 258q1 150 108 255t304 105t294 -99t110 -250l-299 -59q-4 59 -22 91t-78 32q-58 0 -58 -57q0 -35 42 -65t142 -76t150 -86q118 -96 117 -244q-1 -149 -105 -250t-309 -101t-355 92q-43 27 -79 54l100 272
q180 -125 309 -125z" />
    <glyph glyph-name="uni0456" unicode="&#x456;" horiz-adv-x="600" 
d="M492 1536v-311h-383v311h383zM492 1102v-1102h-383v1102h383z" />
    <glyph glyph-name="uni0457" unicode="&#x457;" horiz-adv-x="600" 
d="M492 1102v-1102h-383v1102h383zM631 1520v-291h-281v291h281zM256 1520v-291h-281v291h281z" />
    <glyph glyph-name="uni0458" unicode="&#x458;" horiz-adv-x="604" 
d="M496 1536v-311h-383v311h383zM113 -10v1112h383v-1196q0 -177 -99 -258q-99 -82 -240 -82t-266 53l31 299q69 -22 107 -22q84 0 84 94z" />
    <glyph glyph-name="uni0459" unicode="&#x459;" horiz-adv-x="1679" 
d="M1274 401q0 134 -141 134h-23q-23 0 -39 -5v-254h72q70 0 100.5 30t30.5 95zM1196 827q452 0 453 -413q0 -235 -136 -324.5t-370 -89.5h-455v780h-168l-20 -370q-11 -242 -124 -326t-366 -84v324q75 5 110.5 36.5t39.5 133.5l24 608h887v-283q45 8 125 8z" />
    <glyph glyph-name="uni045A" unicode="&#x45a;" horiz-adv-x="1687" 
d="M1282 401q0 134 -141 134h-23q-22 0 -39 -5v-254h72q70 0 100.5 30t30.5 95zM1204 827q452 0 453 -413q0 -235 -135.5 -324.5t-370.5 -89.5h-455v395h-204v-395h-383v1102h383v-385h204v385h383v-283q46 8 125 8z" />
    <glyph glyph-name="uni045B" unicode="&#x45b;" horiz-adv-x="1234" 
d="M551 0h-383v1229h-168v174h168v92l383 41v-133h330v-174h-330v-182q121 86 274 86q322 0 322 -349v-784h-383v664q0 51 -32 70q-62 37 -181 7v-741z" />
    <glyph glyph-name="uni045C" unicode="&#x45c;" horiz-adv-x="1185" 
d="M492 1102v-416h30l221 416h439l-348 -467q136 -35 191 -193q17 -49 65 -201t96 -241h-412q-41 63 -77 191t-79 181q-25 32 -79 31h-47v-403h-383v1102h383zM997 1536l-243 -324h-299l176 324h366z" />
    <glyph glyph-name="uni045D" unicode="&#x45d;" horiz-adv-x="1198" 
d="M594 1536l176 -324h-299l-244 324h367zM117 1102h383v-576l237 576h383v-1102h-383v518l-237 -518h-391l8 14v1088z" />
    <glyph glyph-name="uni045E" unicode="&#x45e;" horiz-adv-x="1040" 
d="M-27 -82q84 -43 169 -43q86 1 113 23t43 50q15 28 34 70l18 45l-395 1039h401l176 -613l158 613h371l-334 -1032q-94 -287 -215 -403t-336 -116q-150 0 -289 60zM512 1206q-166 0 -250 91t-84 245h236q0 -63 32 -86q64 -45 132 0q33 23 32 86h236q0 -154 -84 -245
t-250 -91z" />
    <glyph glyph-name="uni045F" unicode="&#x45f;" horiz-adv-x="1198" 
d="M1090 0h-324l-18 -315h-293l-19 315h-327v1102h383v-785h215v785h383v-1102z" />
    <glyph glyph-name="uni0462" unicode="&#x462;" horiz-adv-x="1341" 
d="M736 631q-40 0 -60 -4v-310h67q95 0 128.5 24t46 55.5t12.5 80.5t-14.5 79t-41 46t-62.5 22.5t-76 6.5zM0 1305h299v129h377v-129h461v-211h-461v-170q70 6 158 6q219 0 342.5 -104t123.5 -355q0 -250 -134 -360.5t-423 -110.5h-444v1094h-299v211z" />
    <glyph glyph-name="uni0463" unicode="&#x463;" horiz-adv-x="1284" 
d="M879 401q0 134 -142 134h-23q-22 0 -38 -5v-254h72q70 0 100.5 30t30.5 95zM801 799q210 0 331 -80t121 -310t-135.5 -319.5t-369.5 -89.5h-455v926h-262v237h262v332l383 41v-373h262v-237h-262v-135q46 8 125 8z" />
    <glyph glyph-name="uni0472" unicode="&#x472;" horiz-adv-x="1275" 
d="M612 1116q-62 0 -116 -59t-72 -205h405q-16 217 -85.5 240.5t-131.5 23.5zM659.5 317q61.5 0 111 61t60.5 220h-409q22 -227 99 -254t138.5 -27zM638 1464q124 0 232.5 -39t189.5 -128t128 -232t47 -441.5t-164 -476.5t-434 -178q-418 0 -507 269.5t-89 476.5t47 350
t128 232t189.5 128t232.5 39z" />
    <glyph glyph-name="uni0473" unicode="&#x473;" horiz-adv-x="1128" 
d="M688 647q-19 193 -98.5 193t-109 -44t-40.5 -149h248zM563 262q53 0 85 43t40 152h-250q10 -109 41 -152t84 -43zM563 1133q518 0 518 -584q0 -301 -139 -440.5t-381 -139.5t-378 139.5t-136 441.5t135 442.5t381 140.5z" />
    <glyph glyph-name="uni0474" unicode="&#x474;" horiz-adv-x="1245" 
d="M416 1434l237 -973l234 973h358l-383 -1434h-444l-418 1434h416z" />
    <glyph glyph-name="uni0475" unicode="&#x475;" horiz-adv-x="1032" 
d="M387 1102l154 -705l135 705h377l-314 -1102h-436l-323 1102h407z" />
    <glyph glyph-name="uni0490" unicode="&#x490;" horiz-adv-x="1083" 
d="M1042 1739v-643h-542v-1096h-377v1434h567l45 305h307z" />
    <glyph glyph-name="uni0491" unicode="&#x491;" horiz-adv-x="919" 
d="M492 0h-383v1102h460l15 221h274v-543h-366v-780z" />
    <glyph glyph-name="Wgrave" unicode="&#x1e80;" horiz-adv-x="1884" 
d="M0 1434h401l134 -891l217 891h381l217 -891l133 891h401l-270 -1434h-461l-211 852l-211 -852h-461zM909 1890l176 -323h-299l-243 323h366z" />
    <glyph glyph-name="wgrave" unicode="&#x1e81;" horiz-adv-x="1622" 
d="M387 1102l105 -658l137 658h422l125 -658l90 658h376l-280 -1102h-420l-125 674l-133 -674h-410l-294 1102h407zM813 1536l176 -324h-299l-244 324h367z" />
    <glyph glyph-name="Wacute" unicode="&#x1e82;" horiz-adv-x="1884" 
d="M0 1434h401l134 -891l217 891h381l217 -891l133 891h401l-270 -1434h-461l-211 852l-211 -852h-461zM1339 1890l-243 -323h-299l176 323h366z" />
    <glyph glyph-name="wacute" unicode="&#x1e83;" horiz-adv-x="1622" 
d="M387 1102l105 -658l137 658h422l125 -658l90 658h376l-280 -1102h-420l-125 674l-133 -674h-410l-294 1102h407zM1231 1536l-244 -324h-299l176 324h367z" />
    <glyph glyph-name="Wdieresis" unicode="&#x1e84;" horiz-adv-x="1884" 
d="M0 1434h401l134 -891l217 891h381l217 -891l133 891h401l-270 -1434h-461l-211 852l-211 -852h-461zM1260 1874v-291h-281v291h281zM885 1874v-291h-281v291h281z" />
    <glyph glyph-name="wdieresis" unicode="&#x1e85;" horiz-adv-x="1622" 
d="M387 1102l105 -658l137 658h422l125 -658l90 658h376l-280 -1102h-420l-125 674l-133 -674h-410l-294 1102h407zM1139 1520v-291h-281v291h281zM764 1520v-291h-281v291h281z" />
    <glyph glyph-name="Ygrave" unicode="&#x1ef2;" horiz-adv-x="1150" 
d="M764 0h-377v473l-428 961h418l201 -545l206 545h408l-428 -961v-473zM553 1890l176 -323h-299l-244 323h367z" />
    <glyph glyph-name="ygrave" unicode="&#x1ef3;" horiz-adv-x="1040" 
d="M-27 -82q84 -43 169 -43q86 1 113 23t43 50q15 28 34 70l18 45l-395 1039h401l176 -613l158 613h371l-334 -1032q-94 -287 -215 -403t-336 -116q-150 0 -289 60zM498 1536l176 -324h-299l-244 324h367z" />
    <glyph glyph-name="endash" unicode="&#x2013;" horiz-adv-x="1103" 
d="M1001 522h-899v318h899v-318z" />
    <glyph glyph-name="emdash" unicode="&#x2014;" horiz-adv-x="1880" 
d="M1778 522h-1676v318h1676v-318z" />
    <glyph glyph-name="quoteleft" unicode="&#x2018;" horiz-adv-x="499" 
d="M27 948l157 486h289l-78 -486h-368z" />
    <glyph glyph-name="quoteright" unicode="&#x2019;" horiz-adv-x="499" 
d="M473 1434l-158 -486h-288l77 486h369z" />
    <glyph glyph-name="quotesinglbase" unicode="&#x201a;" horiz-adv-x="499" 
d="M473 172l-158 -485h-288l77 485h369z" />
    <glyph glyph-name="quotedblleft" unicode="&#x201c;" horiz-adv-x="970" 
d="M504 948l158 486h288l-78 -486h-368zM-20 948l239 486h289l-160 -486h-368z" />
    <glyph glyph-name="quotedblright" unicode="&#x201d;" horiz-adv-x="970" 
d="M467 1434l-158 -486h-289l78 486h369zM991 1434l-239 -486h-289l160 486h368z" />
    <glyph glyph-name="quotedblbase" unicode="&#x201e;" horiz-adv-x="970" 
d="M467 170l-158 -485h-289l78 485h369zM991 170l-239 -485h-289l160 485h368z" />
    <glyph glyph-name="dagger" unicode="&#x2020;" horiz-adv-x="856" 
d="M20 1255h244v179h340v-179h232v-239h-232v-496h-340v496h-244v239z" />
    <glyph glyph-name="daggerdbl" unicode="&#x2021;" horiz-adv-x="856" 
d="M604 678v-158h-340v158h-203v240h203v98h-244v239h244v179h340v-179h232v-239h-232v-98h191v-240h-191z" />
    <glyph glyph-name="bullet" unicode="&#x2022;" horiz-adv-x="788" 
d="M61 682q0 70 26 130t71 105.5t105.5 72t130 26.5t130 -26.5t105.5 -72t71.5 -105.5t26.5 -130t-26.5 -130t-71.5 -105.5t-105.5 -71t-130 -25.5t-130 25.5t-105.5 71t-71 105.5t-26 130z" />
    <glyph glyph-name="ellipsis" unicode="&#x2026;" horiz-adv-x="1660" 
d="M1604 373v-373h-383v373h383zM1022 373v-373h-383v373h383zM440 373v-373h-383v373h383z" />
    <glyph glyph-name="perthousand" unicode="&#x2030;" horiz-adv-x="2459" 
d="M989 354q0 192 90 288.5t254 96.5t254 -96t90 -288t-90 -289t-254 -97t-254 96.5t-90 288.5zM1409 354.5q0 151.5 -76 151.5t-76 -151.5t76 -151.5t76 151.5zM27 1082q0 192 90 288t254 96t254 -96t90 -288t-90 -289t-254 -97t-254 97t-90 289zM446 1081.5
q0 151.5 -75.5 151.5t-75.5 -151.5t75.5 -151.5t75.5 151.5zM1450 1434l-913 -1434h-283l911 1434h285zM1743 354q0 192 90 288.5t254 96.5t254 -96t90 -288t-90 -289t-254 -97t-254 96.5t-90 288.5zM2163 354.5q0 151.5 -76 151.5t-76 -151.5t76 -151.5t76 151.5z" />
    <glyph glyph-name="guilsinglleft" unicode="&#x2039;" horiz-adv-x="702" 
d="M336 123l-336 487l336 492h366l-294 -492l294 -487h-366z" />
    <glyph glyph-name="guilsinglright" unicode="&#x203a;" horiz-adv-x="702" 
d="M367 123h-367l295 487l-295 492h367l335 -492z" />
    <glyph glyph-name="fraction" unicode="&#x2044;" horiz-adv-x="1196" 
d="M1196 1434l-913 -1434h-283l911 1434h285z" />
    <glyph glyph-name="Euro" unicode="&#x20ac;" 
d="M104 725h-104v188h113q8 281 127.5 416t361.5 135t359.5 -101t134.5 -333l-369 -37q0 123 -106 123q-72 0 -94.5 -52t-26.5 -151h358l-37 -188h-327v-21q0 -22 4 -49h309l-33 -188h-248q16 -82 59.5 -116t130.5 -34t164.5 30t157.5 73l31 -326q-155 -90 -253 -107.5
t-196 -17.5q-212 0 -331 116t-164 382h-125v188h106v5z" />
    <glyph glyph-name="uni2116" unicode="&#x2116;" horiz-adv-x="2263" 
d="M1821 1268q-47 0 -71 -43t-24 -153t24 -150.5t71 -40.5t71.5 40.5t24.5 150.5t-24.5 153t-71.5 43zM1821 1464q387 0 387 -393q0 -203 -103.5 -297t-284.5 -94t-282.5 94t-101.5 298t100.5 298t284.5 94zM932 1434h371v-1434h-390l-421 762v-762h-369v1434h391l418 -791
v791zM1448 590h747v-205h-747v205z" />
    <glyph glyph-name="trademark" unicode="&#x2122;" horiz-adv-x="1802" 
d="M1120 1434l113 -402l110 402h322l86 -727h-258l-39 405l-98 -348h-250l-98 348l-37 -405h-260l90 727h319zM682 1434v-213h-207v-514h-262v514h-203v213h672z" />
    <glyph glyph-name="partialdiff" unicode="&#x2202;" horiz-adv-x="1110" 
d="M397 418q0 -96 84 -96q59 0 108.5 57t61.5 176q-53 29 -117 29t-100.5 -50t-36.5 -116zM531 897q97 0 169 -35q27 157 -0.5 198.5t-74.5 41.5t-79 -19.5t-61 -81.5l-352 76q129 387 543 387q199 0 316.5 -127t117.5 -374q0 -126 -29 -288q-29 -163 -151 -434.5
t-506 -271.5q-194 0 -309 100.5t-115 274.5t50 278.5t127 165t167 85t187 24.5z" />
    <glyph glyph-name="product" unicode="&#x220f;" horiz-adv-x="1368" 
d="M1245 1434v-1434h-377v1065h-368v-1065h-377v1434h1122z" />
    <glyph glyph-name="summation" unicode="&#x2211;" horiz-adv-x="1064" 
d="M967 1434v-336h-408l311 -379l-311 -383h432v-336h-928v254l394 467l-394 457v256h904z" />
    <glyph glyph-name="minus" unicode="&#x2212;" 
d="M991 522h-897v318h897v-318z" />
    <glyph glyph-name="radical" unicode="&#x221a;" horiz-adv-x="1228" 
d="M53 768v334h402l161 -731l254 1063h390l-408 -1434h-483l-205 768h-111z" />
    <glyph glyph-name="infinity" unicode="&#x221e;" horiz-adv-x="1380" 
d="M356 668q0 -47 65 -47t134 61q-69 61 -139 61q-18 0 -39 -14t-21 -61zM1024 696q0 47 -65 47t-134 -61q69 -61 140 -61q18 0 38.5 14t20.5 61zM690 893q141 127 283 127q242 0 294 -129t52 -247t-92 -210t-242 -92q-96 0 -164.5 37t-130.5 92q-142 -129 -282 -129
q-244 0 -295.5 130t-51.5 249.5t93.5 209t240.5 89.5q96 0 165 -36t130 -91z" />
    <glyph glyph-name="integral" unicode="&#x222b;" horiz-adv-x="659" 
d="M-23 -102q136 0 136 104v1161q0 221 125 326.5t342 105.5q82 0 172 -18l-43 -301q-36 8 -78 8q-135 0 -135 -104v-1182q0 -220 -125.5 -326t-341.5 -106q-84 0 -172 18l43 322q36 -8 77 -8z" />
    <glyph glyph-name="approxequal" unicode="&#x2248;" 
d="M342 332q-58 0 -84 -86l-270 90q44 145 122 223t222 78q74 0 186 -34t138 -34t46.5 13.5t36.5 72.5l271 -90q-91 -299 -355 -299q-50 0 -160 33t-153 33zM367 772q-58 0 -84 -86l-271 90q43 143 122 222t222 79q80 0 187 -33.5t135 -33.5q29 0 49.5 13t36.5 73l270 -90
q-91 -299 -354 -299q-57 0 -161 32.5t-152 32.5z" />
    <glyph glyph-name="notequal" unicode="&#x2260;" 
d="M991 293h-559l-104 -176h-232l103 176h-105v317h289l68 119h-357v318h541l104 178h252l-106 -178h106v-318h-297l-71 -119h368v-317z" />
    <glyph glyph-name="lessequal" unicode="&#x2264;" 
d="M991 0h-897v317h897v-317zM991 324l-897 202v406l897 203v-318l-598 -88l598 -88v-317z" />
    <glyph glyph-name="greaterequal" unicode="&#x2265;" 
d="M991 0h-897v317h897v-317zM94 641l598 88l-598 88v318l897 -203v-406l-897 -202v317z" />
    <glyph glyph-name="lozenge" unicode="&#x25ca;" 
d="M694 717l-153 336l-156 -336l156 -336zM-2 717l344 717h403l345 -717l-345 -717h-403z" />
    <glyph glyph-name="f_f" unicode="&#xfb00;" horiz-adv-x="1314" 
d="M688 -104q80 0 80 94v819h-242v-903q0 -176 -98.5 -258t-238.5 -82t-267 53l31 299q69 -22 105 -22q85 0 85 94v819h-127v293h127v61q0 220 125.5 326t341.5 106q81 0 146 -10l-45 -325q-24 4 -49 4q-136 0 -136 -105v-57h242v61q0 220 125.5 326t319.5 106t327 -47
l-63 -299q-108 35 -191 35q-135 0 -135 -104v-78h279l-41 -293h-238v-903q0 -176 -99.5 -258t-248.5 -82q-98 0 -209 37l33 305q31 -12 61 -12z" />
    <glyph glyph-name="f_f_i" unicode="&#xfb03;" horiz-adv-x="1884" 
d="M1776 1536v-311h-383v311h383zM1286 1264q-135 0 -135 -105v-57h625v-1102h-383v809h-242v-903q0 -176 -99.5 -258t-248.5 -82q-98 0 -209 37l33 305q31 -12 61 -12q80 0 80 94v819h-242v-903q0 -176 -98.5 -258t-238.5 -82t-267 53l31 299q69 -22 105 -22q85 0 85 94
v819h-127v293h127v61q0 220 125.5 326t341.5 106q81 0 146 -10l-45 -325q-24 4 -49 4q-136 0 -136 -105v-57h242v61q0 220 125.5 326t341.5 106h21q20 0 104 -8l-25 -327q-24 4 -49 4z" />
    <glyph glyph-name="f_f_l" unicode="&#xfb04;" horiz-adv-x="1910" 
d="M1855 301q44 0 84 18v-294q-113 -49 -156.5 -52.5t-78.5 -3.5q-160 0 -235.5 82t-75.5 268v1176l383 41v-1153q0 -82 79 -82zM1286 1264q-135 0 -135 -105v-57h184l-20 -293h-164v-903q0 -176 -99.5 -258t-248.5 -82q-98 0 -209 37l33 305q31 -12 61 -12q80 0 80 94v819
h-242v-903q0 -176 -98.5 -258t-238.5 -82t-267 53l31 299q69 -22 105 -22q85 0 85 94v819h-127v293h127v61q0 220 125.5 326t341.5 106q81 0 146 -10l-45 -325q-24 4 -49 4q-136 0 -136 -105v-57h242v61q0 220 125.5 326t341.5 106q47 0 125 -8l-25 -327q-24 4 -49 4z" />
    </font>
</defs>
</svg>
